<?xml version="1.0" encoding="utf-8"?>
<svg version="1.1" xmlns:xlink="http://www.w3.org/1999/xlink" width="20px" height="30px" xmlns="http://www.w3.org/2000/svg">
  <g transform="matrix(1 0 0 1 -398 -411 )">
    <path d="M 408 439.95558796737  C 404.2 432.857284902997  398.5 428.598303064373  398.5 421.5  C 398.5 417.785714285714  400.4 411.5  408 411.5  C 415.6 411.5  417.5 417.785714285714  417.5 421.5  C 417.5 428.598303064373  411.8 432.857284902997  408 439.95558796737  Z " fill-rule="nonzero" fill="#b0b0b0" stroke="none" />
    <path d="M 408 441  C 404 433.5  398 429  398 421.5  C 398 417.6  400 411  408 411  C 416 411  418 417.6  418 421.5  C 418 429  412 433.5  408 441  Z M 408 438.91117593474  C 411.6 432.214569805994  417 428.196606128746  417 421.5  C 417 417.971428571429  415.2 412  408 412  C 400.8 412  399 417.971428571429  399 421.5  C 399 428.196606128746  404.4 432.214569805994  408 438.91117593474  Z " fill-rule="nonzero" fill="#b0b0b0" stroke="none" />
  </g>
</svg>