<?xml version="1.0" encoding="utf-8"?>
<svg version="1.1" xmlns:xlink="http://www.w3.org/1999/xlink" width="20px" height="30px" xmlns="http://www.w3.org/2000/svg">
  <g transform="matrix(1 0 0 1 -360 -42 )">
    <path d="M 370 70.95558796737  C 366.2 63.8572849029969  360.5 59.5983030643731  360.5 52.5  C 360.5 48.7857142857143  362.4 42.5  370 42.5  C 377.6 42.5  379.5 48.7857142857143  379.5 52.5  C 379.5 59.5983030643731  373.8 63.8572849029969  370 70.95558796737  Z " fill-rule="nonzero" fill="#ff0000" stroke="none" />
    <path d="M 370 72  C 366 64.5  360 60  360 52.5  C 360 48.6  362 42  370 42  C 378 42  380 48.6  380 52.5  C 380 60  374 64.5  370 72  Z M 370 69.9111759347399  C 373.6 63.2145698059938  379 59.1966061287461  379 52.5  C 379 48.9714285714286  377.2 43  370 43  C 362.8 43  361 48.9714285714286  361 52.5  C 361 59.1966061287461  366.4 63.2145698059938  370 69.9111759347399  Z " fill-rule="nonzero" fill="#ff0000" stroke="none" />
  </g>
</svg>