<?xml version="1.0" encoding="utf-8"?>
<svg version="1.1" xmlns:xlink="http://www.w3.org/1999/xlink" width="20px" height="30px" xmlns="http://www.w3.org/2000/svg">
  <g transform="matrix(1 0 0 1 -14 -60 )">
    <path d="M 24 88.95558796737  C 20.2 81.8572849029969  14.5 77.5983030643731  14.5 70.5  C 14.5 66.7857142857143  16.4 60.5  24 60.5  C 31.6 60.5  33.5 66.7857142857143  33.5 70.5  C 33.5 77.5983030643731  27.8 81.8572849029969  24 88.95558796737  Z " fill-rule="nonzero" fill="#02c7ff" stroke="none" />
    <path d="M 24 90  C 20 82.5  14 78  14 70.5  C 14 66.6  16 60  24 60  C 32 60  34 66.6  34 70.5  C 34 78  28 82.5  24 90  Z M 24 87.9111759347399  C 27.6 81.2145698059938  33 77.1966061287461  33 70.5  C 33 66.9714285714286  31.2 61  24 61  C 16.8 61  15 66.9714285714286  15 70.5  C 15 77.1966061287461  20.4 81.2145698059938  24 87.9111759347399  Z " fill-rule="nonzero" fill="#02c7ff" stroke="none" />
  </g>
</svg>