<?xml version="1.0" encoding="utf-8"?>
<svg version="1.1" xmlns:xlink="http://www.w3.org/1999/xlink" width="20px" height="30px" xmlns="http://www.w3.org/2000/svg">
  <g transform="matrix(1 0 0 1 -14 -406 )">
    <path d="M 24 434.95558796737  C 20.2 427.857284902997  14.5 423.598303064373  14.5 416.5  C 14.5 412.785714285714  16.4 406.5  24 406.5  C 31.6 406.5  33.5 412.785714285714  33.5 416.5  C 33.5 423.598303064373  27.8 427.857284902997  24 434.95558796737  Z " fill-rule="nonzero" fill="#b0b0b0" stroke="none" />
    <path d="M 24 436  C 20 428.5  14 424  14 416.5  C 14 412.6  16 406  24 406  C 32 406  34 412.6  34 416.5  C 34 424  28 428.5  24 436  Z M 24 433.91117593474  C 27.6 427.214569805994  33 423.196606128746  33 416.5  C 33 412.971428571429  31.2 407  24 407  C 16.8 407  15 412.971428571429  15 416.5  C 15 423.196606128746  20.4 427.214569805994  24 433.91117593474  Z " fill-rule="nonzero" fill="#b0b0b0" stroke="none" />
  </g>
</svg>