<?xml version="1.0" encoding="utf-8"?>
<svg version="1.1" xmlns:xlink="http://www.w3.org/1999/xlink" width="20px" height="30px" xmlns="http://www.w3.org/2000/svg">
  <g transform="matrix(1 0 0 1 -14 -568 )">
    <path d="M 24 596.95558796737  C 20.2 589.857284902997  14.5 585.598303064373  14.5 578.5  C 14.5 574.785714285714  16.4 568.5  24 568.5  C 31.6 568.5  33.5 574.785714285714  33.5 578.5  C 33.5 585.598303064373  27.8 589.857284902997  24 596.95558796737  Z " fill-rule="nonzero" fill="#ff0000" stroke="none" />
    <path d="M 24 598  C 20 590.5  14 586  14 578.5  C 14 574.6  16 568  24 568  C 32 568  34 574.6  34 578.5  C 34 586  28 590.5  24 598  Z M 24 595.91117593474  C 27.6 589.214569805994  33 585.196606128746  33 578.5  C 33 574.971428571429  31.2 569  24 569  C 16.8 569  15 574.971428571429  15 578.5  C 15 585.196606128746  20.4 589.214569805994  24 595.91117593474  Z " fill-rule="nonzero" fill="#ff0000" stroke="none" />
  </g>
</svg>