<?xml version="1.0" encoding="utf-8"?>
<svg version="1.1" xmlns:xlink="http://www.w3.org/1999/xlink" width="20px" height="30px" xmlns="http://www.w3.org/2000/svg">
  <g transform="matrix(1 0 0 1 -1153 -49 )">
    <path d="M 1163 77.95558796737  C 1159.2 70.8572849029969  1153.5 66.5983030643731  1153.5 59.5  C 1153.5 55.7857142857143  1155.4 49.5  1163 49.5  C 1170.6 49.5  1172.5 55.7857142857143  1172.5 59.5  C 1172.5 66.5983030643731  1166.8 70.8572849029969  1163 77.95558796737  Z " fill-rule="nonzero" fill="#c1c1c1" stroke="none" />
    <path d="M 1163 79  C 1159 71.5  1153 67  1153 59.5  C 1153 55.6  1155 49  1163 49  C 1171 49  1173 55.6  1173 59.5  C 1173 67  1167 71.5  1163 79  Z M 1163 76.9111759347399  C 1166.6 70.2145698059938  1172 66.1966061287461  1172 59.5  C 1172 55.9714285714286  1170.2 50  1163 50  C 1155.8 50  1154 55.9714285714286  1154 59.5  C 1154 66.1966061287461  1159.4 70.2145698059938  1163 76.9111759347399  Z " fill-rule="nonzero" fill="#b0b0b0" stroke="none" />
  </g>
</svg>