<?xml version="1.0" encoding="utf-8"?>
<svg version="1.1" xmlns:xlink="http://www.w3.org/1999/xlink" width="12px" height="12px" viewBox="207 63  12 12" xmlns="http://www.w3.org/2000/svg">
  <path d="M 213 63  C 216.36 63  219 65.64  219 69  C 219 72.36  216.36 75  213 75  C 209.64 75  207 72.36  207 69  C 207 65.64  209.64 63  213 63  Z " fill-rule="nonzero" fill="#ffffff" stroke="none" />
  <path d="M 213 63.5  C 216.08 63.5  218.5 65.92  218.5 69  C 218.5 72.08  216.08 74.5  213 74.5  C 209.92 74.5  207.5 72.08  207.5 69  C 207.5 65.92  209.92 63.5  213 63.5  Z " stroke-width="1" stroke="#797979" fill="none" />
  <path d="M 213 72  C 211.32 72  210 70.68  210 69  C 210 67.32  211.32 66  213 66  C 214.68 66  216 67.32  216 69  C 216 70.68  214.68 72  213 72  " fill-rule="nonzero" fill="#797979" stroke="none" />
</svg>