<?xml version="1.0" encoding="utf-8"?>
<svg version="1.1" xmlns:xlink="http://www.w3.org/1999/xlink" width="12px" height="12px" viewBox="79 63  12 12" xmlns="http://www.w3.org/2000/svg">
  <path d="M 85 63  C 88.36 63  91 65.64  91 69  C 91 72.36  88.36 75  85 75  C 81.64 75  79 72.36  79 69  C 79 65.64  81.64 63  85 63  Z " fill-rule="nonzero" fill="#ffffff" stroke="none" />
  <path d="M 85 63.5  C 88.08 63.5  90.5 65.92  90.5 69  C 90.5 72.08  88.08 74.5  85 74.5  C 81.92 74.5  79.5 72.08  79.5 69  C 79.5 65.92  81.92 63.5  85 63.5  Z " stroke-width="1" stroke="#797979" fill="none" />
  <path d="M 85 72  C 83.32 72  82 70.68  82 69  C 82 67.32  83.32 66  85 66  C 86.68 66  88 67.32  88 69  C 88 70.68  86.68 72  85 72  " fill-rule="nonzero" fill="#797979" stroke="none" />
</svg>