<?xml version="1.0" encoding="utf-8"?>
<svg version="1.1" xmlns:xlink="http://www.w3.org/1999/xlink" width="10px" height="15px" xmlns="http://www.w3.org/2000/svg">
  <g transform="matrix(1 0 0 1 -312 -100 )">
    <path d="M 317 113.95558796737  C 315.2 110.607284902997  312.5 108.598303064373  312.5 105.25  C 312.5 103.485714285714  313.4 100.5  317 100.5  C 320.6 100.5  321.5 103.485714285714  321.5 105.25  C 321.5 108.598303064373  318.8 110.607284902997  317 113.95558796737  Z " fill-rule="nonzero" fill="#ff0000" stroke="none" />
    <path d="M 317 115  C 315 111.25  312 109  312 105.25  C 312 103.3  313 100  317 100  C 321 100  322 103.3  322 105.25  C 322 109  319 111.25  317 115  Z M 317 112.91117593474  C 318.6 109.964569805994  321 108.196606128746  321 105.25  C 321 103.671428571429  320.2 101  317 101  C 313.8 101  313 103.671428571429  313 105.25  C 313 108.196606128746  315.4 109.964569805994  317 112.91117593474  Z " fill-rule="nonzero" fill="#ff0000" stroke="none" />
  </g>
</svg>