<?xml version="1.0" encoding="utf-8"?>
<svg version="1.1" xmlns:xlink="http://www.w3.org/1999/xlink" width="21px" height="21px" xmlns="http://www.w3.org/2000/svg">
  <g transform="matrix(1 0 0 1 -343 -290 )">
    <path d="M 12.974609375 8.025390625  C 13.658203125 8.708984375  14 9.53385416666666  14 10.5  C 14 11.4661458333333  13.658203125 12.291015625  12.974609375 12.974609375  C 12.291015625 13.658203125  11.4661458333333 14  10.5 14  C 9.53385416666669 14  8.708984375 13.658203125  8.025390625 12.974609375  C 7.341796875 12.291015625  7 11.4661458333333  7 10.5  C 7 9.53385416666666  7.341796875 8.708984375  8.025390625 8.025390625  C 8.708984375 7.341796875  9.53385416666669 7  10.5 7  C 11.4661458333333 7  12.291015625 7.341796875  12.974609375 8.025390625  Z M 14.232421875 4.060546875  C 13.0930989583333 3.39518229166667  11.8489583333333 3.0625  10.5 3.0625  C 9.15104166666669 3.0625  7.90690104166668 3.39518229166667  6.767578125 4.060546875  C 5.62825520833332 4.72591145833333  4.72591145833331 5.62825520833333  4.060546875 6.767578125  C 3.39518229166669 7.90690104166667  3.0625 9.15104166666666  3.0625 10.5  C 3.0625 11.8489583333333  3.39518229166669 13.0930989583333  4.060546875 14.232421875  C 4.72591145833331 15.3717447916667  5.62825520833332 16.2740885416667  6.767578125 16.939453125  C 7.90690104166668 17.6048177083333  9.15104166666669 17.9375  10.5 17.9375  C 11.8489583333333 17.9375  13.0930989583333 17.6048177083333  14.232421875 16.939453125  C 15.3717447916667 16.2740885416667  16.2740885416667 15.3717447916667  16.939453125 14.232421875  C 17.6048177083333 13.0930989583333  17.9375 11.8489583333333  17.9375 10.5  C 17.9375 9.15104166666666  17.6048177083333 7.90690104166667  16.939453125 6.767578125  C 16.2740885416667 5.62825520833333  15.3717447916667 4.72591145833333  14.232421875 4.060546875  Z M 19.591796875 5.2294921875  C 20.5305989583333 6.83821614583333  21 8.59505208333333  21 10.5  C 21 12.4049479166667  20.5305989583333 14.1617838541667  19.591796875 15.7705078125  C 18.6529947916667 17.3792317708333  17.3792317708333 18.6529947916667  15.7705078125 19.591796875  C 14.1617838541667 20.5305989583333  12.4049479166667 21  10.5 21  C 8.59505208333331 21  6.83821614583332 20.5305989583333  5.2294921875 19.591796875  C 3.62076822916669 18.6529947916667  2.34700520833331 17.3792317708333  1.408203125 15.7705078125  C 0.469401041666686 14.1617838541667  0 12.4049479166667  0 10.5  C 0 8.59505208333333  0.469401041666686 6.83821614583333  1.408203125 5.2294921875  C 2.34700520833331 3.62076822916667  3.62076822916669 2.34700520833333  5.2294921875 1.408203125  C 6.83821614583332 0.469401041666664  8.59505208333331 0  10.5 0  C 12.4049479166667 0  14.1617838541667 0.469401041666664  15.7705078125 1.408203125  C 17.3792317708333 2.34700520833333  18.6529947916667 3.62076822916667  19.591796875 5.2294921875  Z " fill-rule="nonzero" fill="#000000" stroke="none" transform="matrix(1 0 0 1 343 290 )" />
  </g>
</svg>