<?xml version="1.0" encoding="utf-8"?>
<svg version="1.1" xmlns:xlink="http://www.w3.org/1999/xlink" width="50px" height="39px" xmlns="http://www.w3.org/2000/svg">
  <g transform="matrix(1 0 0 1 -264 -400 )">
    <path d="M 50 8.35714285714286  L 50 16.7142857142857  L 47 16.7142857142857  L 47 30.6428571428571  L 50 30.6428571428571  L 50 39  L 41.6666666666667 39  L 41.6666666666667 36  L 22.2222222222222 36  L 22.2222222222222 39  L 13.8888888888889 39  L 13.8888888888889 30.6428571428571  L 16.6666666666667 30.6428571428571  L 16.6666666666667 27.8571428571429  L 8.33333333333333 27.8571428571429  L 8.33333333333333 30.6428571428571  L 0 30.6428571428571  L 0 22.2857142857143  L 3 22.2857142857143  L 3 8.35714285714286  L 0 8.35714285714286  L 0 0  L 8.33333333333333 0  L 8.33333333333333 3  L 27.7777777777778 3  L 27.7777777777778 0  L 36.1111111111111 0  L 36.1111111111111 8.35714285714286  L 33.3333333333333 8.35714285714286  L 33.3333333333333 11.1428571428571  L 41.6666666666667 11.1428571428571  L 41.6666666666667 8.35714285714286  L 50 8.35714285714286  Z M 47.2222222222222 11.1428571428571  L 44.4444444444444 11.1428571428571  L 44.4444444444444 13.9285714285714  L 47.2222222222222 13.9285714285714  L 47.2222222222222 11.1428571428571  Z M 33.3333333333333 2.78571428571428  L 30.5555555555556 2.78571428571428  L 30.5555555555556 5.57142857142857  L 33.3333333333333 5.57142857142857  L 33.3333333333333 2.78571428571428  Z M 5.55555555555556 2.78571428571428  L 2.77777777777778 2.78571428571428  L 2.77777777777778 5.57142857142857  L 5.55555555555556 5.57142857142857  L 5.55555555555556 2.78571428571428  Z M 2.77777777777778 27.8571428571429  L 5.55555555555556 27.8571428571429  L 5.55555555555556 25.0714285714286  L 2.77777777777778 25.0714285714286  L 2.77777777777778 27.8571428571429  Z M 33.3333333333333 27.8571428571429  L 33.3333333333333 25.0714285714286  L 30.5555555555556 25.0714285714286  L 30.5555555555556 27.8571428571429  L 33.3333333333333 27.8571428571429  Z M 8.33333333333333 22.2857142857143  L 8.33333333333333 25  L 27.7777777777778 25  L 27.7777777777778 22.2857142857143  L 30 22.2857142857143  L 30 8.35714285714286  L 27.7777777777778 8.35714285714286  L 27.7777777777778 6  L 8.33333333333333 6  L 8.33333333333333 8.35714285714286  L 6 8.35714285714286  L 6 22.2857142857143  L 8.33333333333333 22.2857142857143  Z M 16.6666666666667 36.2142857142857  L 19.4444444444444 36.2142857142857  L 19.4444444444444 33.4285714285714  L 16.6666666666667 33.4285714285714  L 16.6666666666667 36.2142857142857  Z M 44.4444444444444 36.2142857142857  L 47.2222222222222 36.2142857142857  L 47.2222222222222 33.4285714285714  L 44.4444444444444 33.4285714285714  L 44.4444444444444 36.2142857142857  Z M 41.6666666666667 30.6428571428571  L 44 30.6428571428571  L 44 16.7142857142857  L 41.6666666666667 16.7142857142857  L 41.6666666666667 13.9285714285714  L 33.3333333333333 13.9285714285714  L 33.3333333333333 22.2857142857143  L 36.1111111111111 22.2857142857143  L 36.1111111111111 30.6428571428571  L 27.7777777777778 30.6428571428571  L 27.7777777777778 27.8571428571429  L 19.4444444444444 27.8571428571429  L 19.4444444444444 30.6428571428571  L 22.2222222222222 30.6428571428571  L 22.2222222222222 33  L 41.6666666666667 33  L 41.6666666666667 30.6428571428571  Z " fill-rule="nonzero" fill="#000000" stroke="none" transform="matrix(1 0 0 1 264 400 )" />
  </g>
</svg>