<?xml version="1.0" encoding="utf-8"?>
<svg version="1.1" xmlns:xlink="http://www.w3.org/1999/xlink" width="31px" height="29px" xmlns="http://www.w3.org/2000/svg">
  <g transform="matrix(1 0 0 1 -80 -343 )">
    <path d="M 13.5997596153846 16.6008522727273  C 14.0717147435897 17.1226325757576  14.3076923076923 17.7405303030303  14.3076923076923 18.4545454545454  L 14.3076923076923 26.3636363636364  C 14.3076923076923 27.0776515151515  14.0717147435897 27.6955492424242  13.5997596153846 28.2173295454546  C 13.1278044871795 28.7391098484848  12.5689102564103 29  11.9230769230769 29  L 2.38461538461539 29  C 1.73878205128206 29  1.17988782051282 28.7391098484848  0.707932692307693 28.2173295454546  C 0.235977564102569 27.6955492424242  0 27.0776515151515  0 26.3636363636364  L 0 18.4545454545454  C 0 17.7405303030303  0.235977564102569 17.1226325757576  0.707932692307693 16.6008522727273  C 1.17988782051282 16.079071969697  1.73878205128206 15.8181818181818  2.38461538461539 15.8181818181818  L 11.9230769230769 15.8181818181818  C 12.5689102564103 15.8181818181818  13.1278044871795 16.079071969697  13.5997596153846 16.6008522727273  Z M 13.5997596153846 0.782670454545467  C 14.0717147435897 1.30445075757575  14.3076923076923 1.9223484848485  14.3076923076923 2.63636363636363  L 14.3076923076923 10.5454545454545  C 14.3076923076923 11.2594696969697  14.0717147435897 11.8773674242424  13.5997596153846 12.3991477272727  C 13.1278044871795 12.920928030303  12.5689102564103 13.1818181818182  11.9230769230769 13.1818181818182  L 2.38461538461539 13.1818181818182  C 1.73878205128206 13.1818181818182  1.17988782051282 12.920928030303  0.707932692307693 12.3991477272727  C 0.235977564102569 11.8773674242424  0 11.2594696969697  0 10.5454545454545  L 0 2.63636363636363  C 0 1.9223484848485  0.235977564102569 1.30445075757575  0.707932692307693 0.782670454545467  C 1.17988782051282 0.260890151515156  1.73878205128206 0  2.38461538461539 0  L 11.9230769230769 0  C 12.5689102564103 0  13.1278044871795 0.260890151515156  13.5997596153846 0.782670454545467  Z M 30.2920673076923 16.6008522727273  C 30.7640224358974 17.1226325757576  31 17.7405303030303  31 18.4545454545454  L 31 26.3636363636364  C 31 27.0776515151515  30.7640224358974 27.6955492424242  30.2920673076923 28.2173295454546  C 29.8201121794872 28.7391098484848  29.261217948718 29  28.6153846153846 29  L 19.0769230769231 29  C 18.4310897435898 29  17.8721955128205 28.7391098484848  17.4002403846154 28.2173295454546  C 16.9282852564102 27.6955492424242  16.6923076923077 27.0776515151515  16.6923076923077 26.3636363636364  L 16.6923076923077 18.4545454545454  C 16.6923076923077 17.7405303030303  16.9282852564102 17.1226325757576  17.4002403846154 16.6008522727273  C 17.8721955128205 16.079071969697  18.4310897435898 15.8181818181818  19.0769230769231 15.8181818181818  L 28.6153846153846 15.8181818181818  C 29.261217948718 15.8181818181818  29.8201121794872 16.079071969697  30.2920673076923 16.6008522727273  Z M 30.2920673076923 0.782670454545467  C 30.7640224358974 1.30445075757575  31 1.9223484848485  31 2.63636363636363  L 31 10.5454545454545  C 31 11.2594696969697  30.7640224358974 11.8773674242424  30.2920673076923 12.3991477272727  C 29.8201121794872 12.920928030303  29.261217948718 13.1818181818182  28.6153846153846 13.1818181818182  L 19.0769230769231 13.1818181818182  C 18.4310897435898 13.1818181818182  17.8721955128205 12.920928030303  17.4002403846154 12.3991477272727  C 16.9282852564102 11.8773674242424  16.6923076923077 11.2594696969697  16.6923076923077 10.5454545454545  L 16.6923076923077 2.63636363636363  C 16.6923076923077 1.9223484848485  16.9282852564102 1.30445075757575  17.4002403846154 0.782670454545467  C 17.8721955128205 0.260890151515156  18.4310897435898 0  19.0769230769231 0  L 28.6153846153846 0  C 29.261217948718 0  29.8201121794872 0.260890151515156  30.2920673076923 0.782670454545467  Z " fill-rule="nonzero" fill="#000000" stroke="none" transform="matrix(1 0 0 1 80 343 )" />
  </g>
</svg>