<?xml version="1.0" encoding="utf-8"?>
<svg version="1.1" xmlns:xlink="http://www.w3.org/1999/xlink" width="21px" height="21px" xmlns="http://www.w3.org/2000/svg">
  <g transform="matrix(1 0 0 1 -132 -280 )">
    <path d="M 20.77734375 9.97265625  C 20.92578125 10.12109375  21 10.296875  21 10.5  C 21 10.703125  20.92578125 10.87890625  20.77734375 11.02734375  L 17.77734375 14.02734375  C 17.62890625 14.17578125  17.453125 14.25  17.25 14.25  C 17.046875 14.25  16.87109375 14.17578125  16.72265625 14.02734375  C 16.57421875 13.87890625  16.5 13.703125  16.5 13.5  L 16.5 12  L 12 12  L 12 16.5  L 13.5 16.5  C 13.703125 16.5  13.87890625 16.57421875  14.02734375 16.72265625  C 14.17578125 16.87109375  14.25 17.046875  14.25 17.25  C 14.25 17.453125  14.17578125 17.62890625  14.02734375 17.77734375  L 11.02734375 20.77734375  C 10.87890625 20.92578125  10.703125 21  10.5 21  C 10.296875 21  10.12109375 20.92578125  9.97265625 20.77734375  L 6.97265625 17.77734375  C 6.82421875000003 17.62890625  6.75 17.453125  6.75 17.25  C 6.75 17.046875  6.82421875000003 16.87109375  6.97265625 16.72265625  C 7.12109374999997 16.57421875  7.29687499999997 16.5  7.5 16.5  L 9 16.5  L 9 12  L 4.5 12  L 4.5 13.5  C 4.5 13.703125  4.42578124999997 13.87890625  4.27734375 14.02734375  C 4.12890625000003 14.17578125  3.95312500000003 14.25  3.75 14.25  C 3.54687499999997 14.25  3.37109374999997 14.17578125  3.22265625 14.02734375  L 0.22265625 11.02734375  C 0.0742187500000284 10.87890625  0 10.703125  0 10.5  C 0 10.296875  0.0742187500000284 10.12109375  0.22265625 9.97265625  L 3.22265625 6.97265625  C 3.37109374999997 6.82421875  3.54687499999997 6.75  3.75 6.75  C 3.95312500000003 6.75  4.12890625000003 6.82421875  4.27734375 6.97265625  C 4.42578124999997 7.12109375  4.5 7.296875  4.5 7.5  L 4.5 9  L 9 9  L 9 4.5  L 7.5 4.5  C 7.29687499999997 4.5  7.12109374999997 4.42578125  6.97265625 4.27734375  C 6.82421875000003 4.12890625  6.75 3.953125  6.75 3.75  C 6.75 3.546875  6.82421875000003 3.37109375  6.97265625 3.22265625  L 9.97265625 0.22265625  C 10.12109375 0.07421875  10.296875 0  10.5 0  C 10.703125 0  10.87890625 0.07421875  11.02734375 0.22265625  L 14.02734375 3.22265625  C 14.17578125 3.37109375  14.25 3.546875  14.25 3.75  C 14.25 3.953125  14.17578125 4.12890625  14.02734375 4.27734375  C 13.87890625 4.42578125  13.703125 4.5  13.5 4.5  L 12 4.5  L 12 9  L 16.5 9  L 16.5 7.5  C 16.5 7.296875  16.57421875 7.12109375  16.72265625 6.97265625  C 16.87109375 6.82421875  17.046875 6.75  17.25 6.75  C 17.453125 6.75  17.62890625 6.82421875  17.77734375 6.97265625  L 20.77734375 9.97265625  Z " fill-rule="nonzero" fill="#000000" stroke="none" transform="matrix(1 0 0 1 132 280 )" />
  </g>
</svg>