<?xml version="1.0" encoding="utf-8"?>
<svg version="1.1" xmlns:xlink="http://www.w3.org/1999/xlink" width="21px" height="21px" xmlns="http://www.w3.org/2000/svg">
  <g transform="matrix(1 0 0 1 -90 -295 )">
    <path d="M 20.09765625 0.0702341137123312  C 20.31640625 -0.031215161649925  20.521484375 -0.00780379041248125  20.712890625 0.140468227424776  C 20.904296875 0.296544035674515  21 0.503344481605382  21 0.760869565217376  L 21 17.242474916388  C 21 17.3985507246376  20.96240234375 17.5390189520624  20.88720703125 17.6638795986622  C 20.81201171875 17.788740245262  20.712890625 17.8784838350056  20.58984375 17.9331103678931  L 14.02734375 20.9297658862877  C 13.86328125 21.015607580825  13.69921875 21.015607580825  13.53515625 20.9297658862877  L 7.21875 18.0501672240803  L 0.90234375 20.9297658862877  C 0.833984375 20.9687848383501  0.751953125 20.9882943143813  0.65625 20.9882943143813  C 0.5263671875 20.9882943143813  0.4033203125 20.9453734671126  0.287109375 20.8595317725752  C 0.095703125 20.7034559643255  0 20.4966555183946  0 20.2391304347826  L 0 3.75752508361199  C 0 3.60144927536226  0.03759765625 3.46098104793759  0.11279296875 3.33612040133778  C 0.18798828125 3.21125975473808  0.287109375 3.12151616499443  0.41015625 3.06688963210706  L 6.97265625 0.0702341137123312  C 7.13671875 -0.0156075808249625  7.30078125 -0.0156075808249625  7.46484375 0.0702341137123312  L 13.78125 2.94983277591973  L 20.09765625 0.0702341137123312  Z M 13.453125 4.41304347826087  L 7.546875 1.72073578595325  L 7.546875 16.5869565217391  L 13.453125 19.2792642140467  L 13.453125 4.41304347826087  Z M 7 1.72073578595325  L 1.3125 4.26086956521738  L 1.3125 19.1270903010034  L 7 16.5869565217391  L 7 1.72073578595325  Z M 14 19.2792642140467  L 19.6875 16.7391304347826  L 19.6875 1.87290969899664  L 14 4.41304347826087  L 14 19.2792642140467  Z " fill-rule="nonzero" fill="#000000" stroke="none" transform="matrix(1 0 0 1 90 295 )" />
  </g>
</svg>