<?xml version="1.0" encoding="utf-8"?>
<svg version="1.1" xmlns:xlink="http://www.w3.org/1999/xlink" width="21px" height="21px" xmlns="http://www.w3.org/2000/svg">
  <g transform="matrix(1 0 0 1 -273 -302 )">
    <path d="M 20.9776437189496 0.797940340909093  C 21.0124201561391 1.00177556818181  20.9801277501774 1.19815340909091  20.8807665010646 1.38707386363637  L 11.3420865862313 20.4779829545455  C 11.1731724627396 20.8259943181818  10.8899929027679 21  10.4925479063165 21  C 10.4428672817601 21  10.3683463449255 20.9900568181818  10.2689850958126 20.9701704545455  C 10.0503903477644 20.9204545454546  9.87402413058908 20.80859375  9.73988644428675 20.6345880681818  C 9.60574875798437 20.4605823863636  9.53867991483321 20.2642045454546  9.53867991483321 20.0454545454545  L 9.53867991483321 11.4545454545455  L 0.953867991483321 11.4545454545455  C 0.735273243435074 11.4545454545455  0.539034776437177 11.3874289772727  0.365152590489686 11.2531960227273  C 0.191270404542252 11.1189630681818  0.0794889992902768 10.9424715909091  0.0298083747338751 10.7237215909091  C -0.0198722498225834 10.5049715909091  0 10.2961647727273  0.0894251242015685 10.0973011363636  C 0.178850248403137 9.8984375  0.322924059616753 9.74928977272728  0.521646557842416 9.64985795454547  L 19.5990063875089 0.104403409090907  C 19.7281760113556 0.034801136363626  19.8722498225692 0  20.0312278211497 0  C 20.2995031937544 0  20.5230660042583 0.0944602272727195  20.7019162526615 0.283380681818187  C 20.8509581263307 0.42258522727272  20.9428672817601 0.594105113636346  20.9776437189496 0.797940340909093  Z " fill-rule="nonzero" fill="#000000" stroke="none" transform="matrix(1 0 0 1 273 302 )" />
  </g>
</svg>