<?xml version="1.0" encoding="utf-8"?>
<svg version="1.1" xmlns:xlink="http://www.w3.org/1999/xlink" width="30px" height="40px" xmlns="http://www.w3.org/2000/svg">
  <defs>
    <filter x="10px" y="257px" width="30px" height="40px" filterUnits="userSpaceOnUse" id="filter189">
      <feOffset dx="1" dy="1" in="SourceAlpha" result="shadowOffsetInner" />
      <feGaussianBlur stdDeviation="2.5" in="shadowOffsetInner" result="shadowGaussian" />
      <feComposite in2="shadowGaussian" operator="atop" in="SourceAlpha" result="shadowComposite" />
      <feColorMatrix type="matrix" values="0 0 0 0 0  0 0 0 0 0  0 0 0 0 0  0 0 0 0.698039215686274 0  " in="shadowComposite" />
    </filter>
    <g id="widget190">
      <path d="M 24 289.95558796737  C 20.2 282.857284902997  14.5 278.598303064373  14.5 271.5  C 14.5 267.785714285714  16.4 261.5  24 261.5  C 31.6 261.5  33.5 267.785714285714  33.5 271.5  C 33.5 278.598303064373  27.8 282.857284902997  24 289.95558796737  Z " fill-rule="nonzero" fill="#ff0000" stroke="none" />
      <path d="M 24 291  C 20 283.5  14 279  14 271.5  C 14 267.6  16 261  24 261  C 32 261  34 267.6  34 271.5  C 34 279  28 283.5  24 291  Z M 24 288.91117593474  C 27.6 282.214569805994  33 278.196606128746  33 271.5  C 33 267.971428571429  31.2 262  24 262  C 16.8 262  15 267.971428571429  15 271.5  C 15 278.196606128746  20.4 282.214569805994  24 288.91117593474  Z " fill-rule="nonzero" fill="#ff0000" stroke="none" />
    </g>
  </defs>
  <g transform="matrix(1 0 0 1 -10 -257 )">
    <use xlink:href="#widget190" filter="url(#filter189)" />
    <use xlink:href="#widget190" />
  </g>
</svg>