<?xml version="1.0" encoding="utf-8"?>
<svg version="1.1" xmlns:xlink="http://www.w3.org/1999/xlink" width="30px" height="40px" xmlns="http://www.w3.org/2000/svg">
  <defs>
    <filter x="10px" y="56px" width="30px" height="40px" filterUnits="userSpaceOnUse" id="filter193">
      <feOffset dx="1" dy="1" in="SourceAlpha" result="shadowOffsetInner" />
      <feGaussianBlur stdDeviation="2.5" in="shadowOffsetInner" result="shadowGaussian" />
      <feComposite in2="shadowGaussian" operator="atop" in="SourceAlpha" result="shadowComposite" />
      <feColorMatrix type="matrix" values="0 0 0 0 0  0 0 0 0 0  0 0 0 0 0  0 0 0 0.698039215686274 0  " in="shadowComposite" />
    </filter>
    <g id="widget194">
      <path d="M 24 88.95558796737  C 20.2 81.8572849029969  14.5 77.5983030643731  14.5 70.5  C 14.5 66.7857142857143  16.4 60.5  24 60.5  C 31.6 60.5  33.5 66.7857142857143  33.5 70.5  C 33.5 77.5983030643731  27.8 81.8572849029969  24 88.95558796737  Z " fill-rule="nonzero" fill="#0054ff" stroke="none" />
      <path d="M 24 90  C 20 82.5  14 78  14 70.5  C 14 66.6  16 60  24 60  C 32 60  34 66.6  34 70.5  C 34 78  28 82.5  24 90  Z M 24 87.9111759347399  C 27.6 81.2145698059938  33 77.1966061287461  33 70.5  C 33 66.9714285714286  31.2 61  24 61  C 16.8 61  15 66.9714285714286  15 70.5  C 15 77.1966061287461  20.4 81.2145698059938  24 87.9111759347399  Z " fill-rule="nonzero" fill="#0054ff" stroke="none" />
    </g>
  </defs>
  <g transform="matrix(1 0 0 1 -10 -56 )">
    <use xlink:href="#widget194" filter="url(#filter193)" />
    <use xlink:href="#widget194" />
  </g>
</svg>