<?xml version="1.0" encoding="utf-8"?>
<svg version="1.1" xmlns:xlink="http://www.w3.org/1999/xlink" width="122px" height="122px" xmlns="http://www.w3.org/2000/svg">
  <g transform="matrix(1 0 0 1 -314 -143 )">
    <path d="M 375 143  C 409.16 143  436 169.84  436 204  C 436 238.16  409.16 265  375 265  C 340.84 265  314 238.16  314 204  C 314 169.84  340.84 143  375 143  Z " fill-rule="nonzero" fill="#ebe9e9" stroke="none" fill-opacity="0" />
    <path d="M 375 143.5  C 408.88 143.5  435.5 170.12  435.5 204  C 435.5 237.88  408.88 264.5  375 264.5  C 341.12 264.5  314.5 237.88  314.5 204  C 314.5 170.12  341.12 143.5  375 143.5  Z " stroke-width="1" stroke="#ffffff" fill="none" />
  </g>
</svg>