<?xml version="1.0" encoding="utf-8"?>
<svg version="1.1" xmlns:xlink="http://www.w3.org/1999/xlink" width="15px" height="8px" xmlns="http://www.w3.org/2000/svg">
  <g transform="matrix(1 0 0 1 -205 -508 )">
    <path d="M 7.2 1.35  L 13.6 7.7  C 13.8 7.9  14.1 7.9  14.3 7.7  C 14.5 7.5  14.5 7.2  14.3 7  L 7.55 0.3  C 7.45 0.2  7.3 0.149999999999999  7.2 0.149999999999999  C 7.1 0.149999999999999  6.95 0.199999999999999  6.85 0.3  L 0.15 7  C -0.05 7.2  -0.05 7.5  0.15 7.7  C 0.35 7.9  0.65 7.9  0.85 7.7  L 7.2 1.35  Z " fill-rule="nonzero" fill="#f2f2f2" stroke="none" fill-opacity="0.298039215686275" transform="matrix(1 0 0 1 205 508 )" />
  </g>
</svg>