<?xml version="1.0" encoding="utf-8"?>
<svg version="1.1" xmlns:xlink="http://www.w3.org/1999/xlink" width="4px" height="6px" xmlns="http://www.w3.org/2000/svg">
  <g transform="matrix(1 0 0 1 -26 -509 )">
    <path d="M 3.93333333333334 0.299999999999955  L 3.66666666666669 1.35000000000002  C 3.53333333333336 1.27499999999998  3.26666666666665 1.20000000000005  2.93333333333334 1.20000000000005  C 2.13333333333333 1.20000000000005  1.66666666666669 1.95000000000005  1.66666666666669 2.85000000000002  C 1.66666666666669 3.89999999999998  2.19999999999999 4.5  2.93333333333334 4.5  C 3.26666666666665 4.5  3.46666666666664 4.42499999999995  3.73333333333335 4.35000000000002  L 3.86666666666667 5.39999999999998  C 3.66666666666669 5.54999999999995  3.19999999999999 5.625  2.73333333333335 5.625  C 1.33333333333331 5.625  0.399999999999977 4.57500000000005  0.399999999999977 2.92499999999995  C 0.399999999999977 1.27499999999998  1.33333333333331 0.0750000000000455  2.93333333333334 0.0750000000000455  C 3.33333333333331 0.0750000000000455  3.73333333333335 0.149999999999977  3.93333333333334 0.299999999999955  Z " fill-rule="nonzero" fill="#ffffff" stroke="none" transform="matrix(1 0 0 1 26 509 )" />
  </g>
</svg>