<?xml version="1.0" encoding="utf-8"?>
<svg version="1.1" xmlns:xlink="http://www.w3.org/1999/xlink" width="6px" height="6px" xmlns="http://www.w3.org/2000/svg">
  <g transform="matrix(1 0 0 1 -30 -509 )">
    <path d="M 3 0.0750000000000455  C 4.5 0.0750000000000455  5.39999999999998 1.20000000000005  5.39999999999998 2.85000000000002  C 5.39999999999998 4.875  4.05000000000001 5.70000000000005  2.92500000000001 5.70000000000005  C 1.5 5.70000000000005  0.449999999999989 4.64999999999998  0.449999999999989 2.92499999999995  C 0.449999999999989 1.125  1.57499999999999 0.0750000000000455  3 0.0750000000000455  Z M 3.97500000000002 2.85000000000002  C 3.97500000000002 2.02499999999998  3.67500000000001 1.125  2.92500000000001 1.125  C 2.10000000000002 1.125  1.875 2.02499999999998  1.875 2.85000000000002  C 1.875 3.82500000000005  2.25 4.57500000000005  2.92500000000001 4.57500000000005  C 3.60000000000002 4.57500000000005  3.97500000000002 3.75  3.97500000000002 2.85000000000002  Z " fill-rule="nonzero" fill="#ffffff" stroke="none" transform="matrix(1 0 0 1 30 509 )" />
  </g>
</svg>