<?xml version="1.0" encoding="utf-8"?>
<svg version="1.1" xmlns:xlink="http://www.w3.org/1999/xlink" width="5px" height="6px" xmlns="http://www.w3.org/2000/svg">
  <g transform="matrix(1 0 0 1 -36 -509 )">
    <path d="M 1.64285714285717 0.899999999999977  C 1.85714285714283 0.524999999999977  2.35714285714283 0.0750000000000455  3.14285714285717 0.0750000000000455  C 4.07142857142856 0.0750000000000455  4.78571428571428 0.75  4.78571428571428 2.25  L 4.78571428571428 5.54999999999995  L 3.42857142857144 5.54999999999995  L 3.42857142857144 2.39999999999998  C 3.42857142857144 1.72500000000002  3.21428571428572 1.20000000000005  2.64285714285717 1.20000000000005  C 2.28571428571428 1.20000000000005  1.78571428571428 1.5  1.78571428571428 2.32500000000005  L 1.78571428571428 5.54999999999995  L 0.428571428571445 5.54999999999995  C 0.428571428571445 5.54999999999995  0.428571428571445 0.674999999999955  0.428571428571445 0.149999999999977  L 1.64285714285717 0.149999999999977  L 1.64285714285717 0.899999999999977  Z " fill-rule="nonzero" fill="#ffffff" stroke="none" transform="matrix(1 0 0 1 36 509 )" />
  </g>
</svg>