<?xml version="1.0" encoding="utf-8"?>
<svg version="1.1" xmlns:xlink="http://www.w3.org/1999/xlink" width="24px" height="25px" xmlns="http://www.w3.org/2000/svg">
  <g transform="matrix(1 0 0 1 -20 -499 )">
    <path d="M 23.7882352941177 12.4285714285714  C 23.7882352941177 5.85714285714289  18.4941176470588 0.5  12 0.5  C 5.50588235294117 0.5  0.211764705882331 5.85714285714289  0.211764705882331 12.4285714285714  C 0.211764705882331 19  5.50588235294117 24.3571428571429  12 24.3571428571429  C 18.4941176470588 24.3571428571429  23.7882352941177 19  23.7882352941177 12.4285714285714  Z M 23.1529411764706 12.5  C 23.1529411764706 18.7142857142857  18.1411764705882 23.7142857142857  12 23.7142857142857  C 5.85882352941178 23.7142857142857  0.847058823529437 18.6428571428571  0.847058823529437 12.4285714285714  C 0.847058823529437 6.21428571428567  5.85882352941178 1.21428571428567  12 1.21428571428567  C 18.1411764705882 1.21428571428567  23.1529411764706 6.28571428571433  23.1529411764706 12.5  Z " fill-rule="nonzero" fill="#ffffff" stroke="none" transform="matrix(1 0 0 1 20 499 )" />
  </g>
</svg>