<?xml version="1.0" encoding="utf-8"?>
<svg version="1.1" xmlns:xlink="http://www.w3.org/1999/xlink" width="18px" height="16px" xmlns="http://www.w3.org/2000/svg">
  <g transform="matrix(1 0 0 1 -1240 -20 )">
    <path d="M 17.30375 15.1556923076923  C 16.9241830941439 15.6444574755275  16.3361293181454 15.9325974346498  15.7112500000001 16  L 2.28875000000005 16  C 1.67250000000001 15.936  1.09124999999995 15.6529230769231  0.696249999999964 15.1556923076923  C 0.288460178210357 14.6457762567195  0.138494107183192 13.9808582621397  0.28875000000005 13.3489230769231  L 0.327499999999986 13.248  L 3.46249999999998 7.18030769230769  C 3.66125 6.80246153846154  3.76499999999999 6.38030769230769  3.76499999999999 5.95815384615385  L 3.76499999999999 4.81969230769231  C 3.76499999999999 4.40246153846154  3.83124999999995 4.00615384615384  3.96249999999998 3.64430769230769  C 4.59875 1.88307692307692  6.25750000000005 0  9 0  C 11.7425 0  13.40125 1.88307692307692  14.0375 3.64307692307692  C 14.16875 4.00492307692308  14.235 4.40123076923077  14.235 4.81846153846154  L 14.235 5.95815384615385  C 14.235 6.39261538461538  14.345 6.85169230769231  14.5375 7.21723076923077  L 17.7112500000001 13.3489230769231  C 17.865 13.968  17.7112500000001 14.6436923076923  17.30375 15.1556923076923  Z M 4.30875000000003 7.60861538461538  L 1.20375000000001 13.6196923076923  C 1.14024274349697 13.9578039565205  1.22819505679763 14.3064442622848  1.44500000000005 14.576  C 1.65750000000003 14.8430769230769  1.96624999999995 14.9981538461538  2.28875000000005 15  L 15.7112500000001 15  C 16.0436197202398 14.9932807026718  16.3550524084267 14.8374614349549  16.5550000000001 14.576  C 16.7721065901067 14.3065902567765  16.8600932244606 13.9578139033964  16.7962500000001 13.6196923076923  L 13.69125 7.64553846153846  C 13.4239319773476 7.12200606968776  13.284803160519 6.54412588489199  13.285 5.95815384615385  L 13.285 4.81969230769231  C 13.2880471862643 4.52699217191306  13.2398417729413 4.23596418670114  13.1425 3.95938461538462  C 12.88625 3.25046153846154  11.83 0.937846153846152  9 0.937846153846152  C 6.16999999999996 0.937846153846152  5.11625000000004 3.25046153846154  4.86000000000001 3.95815384615385  C 4.76164929700303 4.23493871259241  4.71300591237491 4.52647364655092  4.71624999999995 4.81969230769231  L 4.71624999999995 5.95938461538461  C 4.71624999999995 6.53169230769231  4.57500000000005 7.10153846153846  4.30875000000003 7.60861538461538  Z " fill-rule="nonzero" fill="#ffffff" stroke="none" transform="matrix(1 0 0 1 1240 20 )" />
  </g>
</svg>