<?xml version="1.0" encoding="utf-8"?>
<svg version="1.1" xmlns:xlink="http://www.w3.org/1999/xlink" width="10px" height="5px" xmlns="http://www.w3.org/2000/svg">
  <g transform="matrix(1 0 0 1 -1244 -35 )">
    <path d="M 9.28625 0.707499999999996  C 9.2834934584406 3.07338537948638  7.36588608285797 4.99043352282186  5 4.9925  C 2.63451952414334 4.99043146744619  0.717628385003877 3.07298097868922  0.716249999999945 0.707499999999996  C 0.716249999999945 0.444819565861728  0.929194565861735 0.231874999999995  1.19187499999998 0.231874999999995  C 1.45455543413823 0.231874999999995  1.66750000000002 0.444819565861728  1.66750000000002 0.707499999999996  C 1.66956661911649 2.5478225833526  3.16092741664738 4.03918338088349  5.00125000000003 4.04125  C 6.84108440927753 4.03849484972829  8.33168483092504 2.54733531314393  8.33375000000001 0.707499999999996  C 8.33375000000001 0.444474387893081  8.5469743878931 0.231249999999996  8.81000000000006 0.231249999999996  C 9.0730256121069 0.231249999999996  9.28625 0.444474387893081  9.28625 0.707499999999996  Z " fill-rule="nonzero" fill="#ffffff" stroke="none" transform="matrix(1 0 0 1 1244 35 )" />
  </g>
</svg>