<?xml version="1.0" encoding="utf-8"?>
<svg version="1.1" xmlns:xlink="http://www.w3.org/1999/xlink" width="24px" height="23px" xmlns="http://www.w3.org/2000/svg">
  <g transform="matrix(1 0 0 1 -1286 -18 )">
    <path d="M 23.9946313828125 12.26082950625  C 23.9944361484377 5.48982388020835  18.6239562656251 0  12.0000487968748 0  C 5.37614135156241 0  0.00556385156232864 5.48992366666667  0.00556385156232864 12.2610290791667  C 0.00556385156232864 16.4315550625  2.04339639843761 20.115351715625  5.15622292968737 22.330279459375  C 5.76287758593753 20.17082965625  7.29576651562479 18.544108009375  9.38172145312524 17.8013418885417  C 9.46859557031257 17.7703101447917  9.55644581249999 17.740974675  9.64527215625003 17.71313590625  C 9.65932818750002 17.708745565625  9.67318900781243 17.703956103125  9.68734265624994 17.6996655489583  C 9.89633613741216 17.635570013794  10.1079245373555 17.5806734721026  10.3215237187499 17.535127478125  C 10.34338865625 17.5304378020833  10.365448828125 17.5262470104167  10.3873137656249 17.5217569072917  C 10.5018751596951 17.498289020512  10.6169209391526 17.4773634530438  10.7323699687499 17.4589949625  C 10.8136679597744 17.4461382298994  10.8951500834412 17.4345291188187  10.9767888281249 17.4241715489584  C 11.0061698437501 17.4203798791667  11.0353556484376 17.4162888979166  11.0648342812499 17.41289635  C 11.175301640719 17.3997846654243  11.2860152040039 17.3889396686122  11.3969081484377 17.3803679052083  L 12.608753296875 17.3803679052083  C 12.72022546875 17.3888492510417  12.8303310937499 17.4000246635417  12.9397534453126 17.4126968010417  C 12.9706962421876 17.416388684375  13.0013462109373 17.4206792385417  13.0320937968752 17.4246704572917  C 13.1448755256929 17.4390068259465  13.2573488439714 17.4557736827254  13.3694386875002 17.4749598375  C 13.4494800000002 17.4887295541667  13.52893565625 17.5036966125  13.6077080390623 17.5197612979167  C 13.6346487656249 17.5252492177083  13.6619799609373 17.5303380395833  13.6887254765625 17.5361252947916  C 13.8998588671875 17.5815254260417  14.1065021249999 17.6351075677083  14.3085576796875 17.6968716958333  C 14.3335461796876 17.7044550114583  14.3581442578125 17.7127368083333  14.383035140625 17.720619459375  C 14.4585863437501 17.744566771875  14.533649484375 17.7696116875  14.6078341171874 17.79585396875  C 16.7004266249999 18.53572645  18.2383913671877 20.1638450354167  18.8476815234374 22.32748560625  C 21.9583606171875 20.1121587166667  23.9946313828125 16.4297590020833  23.9946313828125 12.26082950625  Z M 17.6425715625001 11.7942558427083  C 17.5444721484375 14.8944362885417  15.0567487968749 17.3774742895833  12.0000487968748 17.3774742895833  C 8.94442251562509 17.3774742895833  6.45728484375013 14.8963321354167  6.35762364843754 11.797648390625  C 6.35420725781273 11.7954532083334  6.35079084375002 11.793657171875  6.34737445312498 11.7914619895833  C 6.23033842968744 9.55488185416667  7.37424604687499 7.83676125000002  8.82231070312514 6.83276975416666  C 8.83070528906228 6.82688271249998  8.83880702343754 6.82079609791668  8.84720160937491 6.81500884270832  C 8.90244963281225 6.777092240625  8.95847857031254 6.741171271875  9.01450748437514 6.70535004166666  C 9.03647003906258 6.69128098958333  9.05794455468731 6.67661326666666  9.08010232031234 6.66294333645834  C 9.9716845546875 6.10936105625001  10.9526788124999 5.82009736354169  11.815660921875 5.83686048229166  C 11.8770584765625 5.83476508645833  11.9382607968748 5.83207101979167  12.0001464140626 5.83207101979167  C 12.0589084687499 5.83207101979167  12.1167919921875 5.83476508645833  12.1751636015624 5.836561146875  C 12.8369686875001 5.82488682604168  13.5674921718748 5.99311675625  14.2742960859375 6.320795959375  C 14.8007140858906 6.55812621537032  15.2885743993713 6.87627102431355  15.720994171875 7.26422069270834  C 16.8981872812501 8.29654984166669  17.7504321328126 9.848037003125  17.6472569062498 11.7914619895833  L 17.6425715625001 11.7942558427083  Z " fill-rule="nonzero" fill="#a0d9f6" stroke="none" transform="matrix(1 0 0 1 1286 18 )" />
  </g>
</svg>