<?xml version="1.0" encoding="utf-8"?>
<svg version="1.1" xmlns:xlink="http://www.w3.org/1999/xlink" width="12px" height="11px" xmlns="http://www.w3.org/2000/svg">
  <g transform="matrix(1 0 0 1 -1292 -24 )">
    <path d="M 2.84710399218761 1.14318455179398  C 2.83870940625002 1.14856644184027  2.83060767187521 1.15431947366898  2.82221308593762 1.15970134143518  C 2.83051005468747 1.15431945138889  2.83870940625002 1.14847362297454  2.84710399218761 1.14318455179398  Z M 5.99165423437512 0.239585251736116  C 6.05269394674701 0.236027448657694  6.113817823717 0.233923525929811  6.17496836718738 0.233275462673589  C 6.11659675781243 0.231605213252323  6.05871323437509 0.229099861400442  5.99995120312519 0.229099861400442  C 5.93806558593747 0.229099861400442  5.87686326562493 0.231605213252323  5.81546571093759 0.23355383015047  C 5.87461821093734 0.234667322337941  5.93367307031258 0.235873611111089  5.99165423437512 0.239585251736116  Z M 11.64247396875 5.77364371846068  C 10.1489224218749 6.65729293344907  6.23275432031255 5.3753845234375  5.06903156249996 3.42185446383104  C 3.98369076562494 5.23183676099535  2.14488780468741 6.83526617939813  0.357526031250018 5.77679862413194  C 0.457187249999834 8.65842481192132  2.94432489843734 10.9657671533565  5.99995120312519 10.9657671533565  C 9.05665120312483 10.9657671533565  11.5444721484375 8.65666176591438  11.64247396875 5.77364371846068  Z M 3.08000472656249 1.00177097714121  C 3.05774934374995 1.0145761484375  3.03637244531251 1.02821642216435  3.0144098671874 1.04120716435187  C 3.03637242187506 1.02821642216435  3.05794453124986 1.01448335185185  3.08000472656249 1.00177097714121  Z M 9.72079893749992 1.56092987123841  C 9.28835341727154 1.20018801714266  8.80049860923305 0.904332052874622  8.27410085156248 0.683590445312518  C 8.79740761144672 0.909782014128496  9.28445729355008 1.20514971568812  9.72079893749992 1.56092987123841  Z " fill-rule="nonzero" fill="#fce9ea" stroke="none" transform="matrix(1 0 0 1 1292 24 )" />
  </g>
</svg>