<?xml version="1.0" encoding="utf-8"?>
<svg version="1.1" xmlns:xlink="http://www.w3.org/1999/xlink" width="16px" height="7px" xmlns="http://www.w3.org/2000/svg">
  <g transform="matrix(1 0 0 1 -1291 -35 )">
    <path d="M 10.5419041499999 0.779787115624998  C 10.5153538499999 0.772589912499967  10.4891159250001 0.765028271874996  10.4624615250002 0.758104396874984  C 10.4891159250001 0.765028293749964  10.5153538750001 0.772589934374992  10.5419041499999 0.779787115624998  Z M 6.27969725000003 0.598125871874998  C 6.25627052500022 0.60222555312501  6.23273967499995 0.606051906250002  6.20952117500019 0.61033378437503  C 6.23284377499999 0.606051906250002  6.25637462499981 0.602225531250014  6.27969725000003 0.598125871874998  Z M 5.53306137499999 0.760564196874981  C 5.5179641499999 0.764481659375008  5.50317927499987 0.768854646874985  5.48818617500001 0.77286321874999  C 5.50317927499987 0.768854646874985  5.5179641499999 0.764481659375008  5.53306137499999 0.760564196874981  Z M 15.3038812750001 4.986147315625  C 14.654284125 3.010649403125  13.013788425 1.52401523750004  10.7815856249999 0.848479493750006  C 10.7999105250001 0.85403683749999  10.8180272 0.859685268749985  10.8361438750001 0.865333721874975  C 10.7681429945671 1.03396123977709  10.6805362746218 1.19603453809316  10.5747015750001 1.3490045625  C 11.0032545249999 1.92642135  10.8956998249998 4.44407884375002  10.251725075 4.04832332187502  L 9.12432677499987 3.35365574687501  L 7.99984382499974 2.66153908125  L 8.07376817499994 2.61607821562498  C 8.04919614999994 2.61662485000002  8.02462410000021 2.61771809687502  7.99984382499974 2.61771809687502  C 7.97402237499978 2.61771809687502  7.94851324999968 2.61653374062502  7.92290002499976 2.61598710624997  L 7.99692849999997 2.66153908125  L 6.8724455250001 3.35365574687501  L 5.7450472500002 4.04832332187502  C 5.09753247499998 4.44480767499999  4.990290125 1.91758428750001  5.42311192500006 1.34599812812502  C 5.31841837785828 1.19430969376498  5.23165608509385 1.033684323128  5.16416850000019 0.866609187500018  C 5.17843277500015 0.862145090625035  5.1925929250001 0.857680993749966  5.20696132500029 0.853399115624995  C 2.98194272500018 1.53148576875003  1.34686119999992 3.01684446875004  0.69976287500026 4.98851602812502  C 2.77026920000026 6.24966792187499  5.28619570000023 6.98970525312501  7.99984382499974 6.98970525312501  C 10.71526195 6.98970525312501  13.23275025 6.24866576250002  15.3038812750001 4.986147315625  Z M 9.80130717500015 0.611335943750021  C 9.772778625 0.606051906250002  9.74372947499978 0.601314503124996  9.71488857500003 0.596394881250006  C 9.74362535 0.601405590625006  9.772778625 0.606051906250002  9.80130717500015 0.611335943750021  Z M 7.00238577500022 0.498822559374986  C 6.97094190000007 0.501920103125002  6.93981037499998 0.505655346875017  6.90847062499984 0.509117306250005  C 6.93981037499998 0.505746456249966  6.97094190000007 0.501920103125002  7.00238577500022 0.498822559374986  Z M 9.10079595000025 0.509481721875005  C 9.06799852500012 0.505928674999979  9.03540935000001 0.502011190624984  9.00229955000009 0.49854925312502  C 9.03530520000004 0.501828993749996  9.06799849999993 0.505837565624972  9.10079595000025 0.509481721875005  Z " fill-rule="nonzero" fill="#cfe07d" stroke="none" transform="matrix(1 0 0 1 1291 35 )" />
  </g>
</svg>