<?xml version="1.0" encoding="utf-8"?>
<svg version="1.1" xmlns:xlink="http://www.w3.org/1999/xlink" width="6px" height="4px" xmlns="http://www.w3.org/2000/svg">
  <g transform="matrix(1 0 0 1 -1295 -35 )">
    <path d="M 0.341603179687581 1.23801312499998  C 0.404859033323419 1.47663576871187  0.486165260357438 1.70605494548533  0.584265046875089 1.92272434375002  C 0.664892039062352 1.76055931250002  0.765431742187502 1.70797934375  0.8860793906249 1.82107837499998  L 1.94301529687505 2.81346059375002  L 2.92781639062491 3.7371244375  C 2.9519264062501 3.73790534374999  2.97574357031249 3.73959725  2.99995120312519 3.73959728124998  C 3.02318271093736 3.73959728124998  3.04621898437495 3.7380355  3.06925525781253 3.73725459374998  L 4.05415396874992 2.81346059375002  L 5.11108987500006 1.82107837499998  C 5.23232320312513 1.70693815625  5.33315573437517 1.76134021875001  5.41388034374972 1.92701921875002  C 5.51311858198233 1.70850367372952  5.59525078111142 1.47696784390646  5.65898247656264 1.23606090625  L 5.60783411718739 1.21198343749998  C 5.53330898355739 1.177634548062  5.45836589096075 1.14491948265916  5.38303514062477 1.11385146875  C 5.358144234375 1.10356974999999  5.33354617968757 1.09276740625  5.30855767968774 1.08287612499998  C 5.10422209362673 1.00153148954553  4.89743179420771 0.931581008906363  4.68872547656247 0.873206906249976  C 4.66197996093729 0.865658281250006  4.63464878906257 0.859020718750003  4.60770803906257 0.851862562499974  C 4.41706695359426 0.800939106674349  4.22506061368495 0.759566189530801  4.03209379687519 0.72783103125002  C 4.00134621093753 0.722625093749997  3.97069624218761 0.716898562499978  3.93975344531259 0.71221321874998  C 3.82963368670539 0.695320652482366  3.71927977530709 0.681261995554109  3.60875329687497 0.670045093749991  L 2.39690814843766 0.670045093749991  C 2.28601520400412 0.681225654711596  2.175301640719 0.695371302727295  2.06483428124989 0.712473499999987  C 2.03535564843764 0.716898562499978  2.00616984375006 0.722364781250008  1.97678882812511 0.727180281249986  C 1.77916618089012 0.759706226083267  1.58253456384386 0.802164857713024  1.38731376562487 0.854465531249986  C 1.36535121093743 0.860322218749985  1.34329103906271 0.865788437499987  1.32152371874986 0.871905406249994  C 1.10794585662711 0.931436170515894  0.89636137314551 1.0030390299506  0.687342656249939 1.08652028125002  C 0.673189007812425 1.09211665625  0.659328187500023 1.09836378124999  0.645272156249803 1.10409031250001  C 0.556445812500215 1.14027159374999  0.468595570312573 1.17866540624996  0.381721453125238 1.21914159375001  C 0.368348695312534 1.22525856249999  0.354975937500058 1.23163584375001  0.341603179687581 1.23801312499998  Z " fill-rule="nonzero" fill="#fefefe" stroke="none" transform="matrix(1 0 0 1 1295 35 )" />
  </g>
</svg>