<?xml version="1.0" encoding="utf-8"?>
<svg version="1.1" xmlns:xlink="http://www.w3.org/1999/xlink" width="6px" height="4px" xmlns="http://www.w3.org/2000/svg">
  <g transform="matrix(1 0 0 1 -1295 -36 )">
    <path d="M 5.41388034375018 0.37968833333332  C 5.33325335156246 0.232302388888883  5.23242082031243 0.183944999999994  5.11108987500006 0.285403000000002  L 4.05415396874992 1.16752052777778  L 3.06925525781253 1.98867074999998  L 2.99995120312519 2.04639883333334  L 4.05415396874992 2.92527713888887  L 5.11108987500006 3.80739469444447  C 5.71481617968743 4.30994138888889  5.81564873437515 1.1129160277778  5.41388034375018 0.37968833333332  Z M 1.94301529687505 1.16740486111109  L 0.8860793906249 0.285403000000002  C 0.765431742187502 0.184870527777775  0.664892039062352 0.231608277777781  0.584265046875089 0.375754972222239  C 0.178494585937415 1.1015786388889  0.279034289062565 4.31075122222219  0.8860793906249 3.80727899999999  L 1.94301529687505 2.92516144444446  L 2.99721808593745 2.04628316666665  L 2.92781639062491 1.98843938888888  L 1.94301529687505 1.16740486111109  Z " fill-rule="nonzero" fill="#7ea701" stroke="none" transform="matrix(1 0 0 1 1295 36 )" />
  </g>
</svg>