<?xml version="1.0" encoding="utf-8"?>
<svg version="1.1" xmlns:xlink="http://www.w3.org/1999/xlink" width="6px" height="6px" xmlns="http://www.w3.org/2000/svg">
  <g transform="matrix(1 0 0 1 -1292 -24 )">
    <path d="M 0.343224989999953 5.58050539285713  C 2.05909229250005 6.59851945714286  3.82434313499994 5.0563713857143  4.86627029999977 3.31556466428569  C 5.56607353499999 2.14619162142856  5.93977670999993 0.887484664285722  5.75208175500006 0.254918357142884  C 5.69576170916685 0.251628783541946  5.63936340467421 0.249694531026307  5.58294079500024 0.24911745  C 4.75447796999993 0.234124350000002  3.81272348249991 0.492844671428571  2.95680453750015 0.987974164285731  C 2.93562677249997 1.0002006857143  2.91491754749995 1.01340889285714  2.89383347250009 1.02590314285712  C 2.84004571499986 1.05794198571428  2.78625793500009 1.09007005714287  2.73321983250003 1.12398306428571  C 2.72516103000021 1.12915926428573  2.71738336499993 1.13469242142858  2.70932456250011 1.1398686  C 1.31918249249998 2.03784857142855  0.221031179999727 3.57455271428572  0.333385762500029 5.57497221428571  C 0.336665497500007 5.57693560714284  0.339945254999975 5.578542  0.343224989999953 5.58050539285713  Z " fill-rule="nonzero" fill="#fbce77" stroke="none" transform="matrix(1 0 0 1 1292 24 )" />
  </g>
</svg>