<?xml version="1.0" encoding="utf-8"?>
<svg version="1.1" xmlns:xlink="http://www.w3.org/1999/xlink" width="242px" height="198px" xmlns="http://www.w3.org/2000/svg">
  <defs>
    <mask fill="white" id="clip37">
      <path d="M 48 15  L 0 98  L 48 198  L 193 171  L 242 43  L 174 0  L 48 15  Z " fill-rule="evenodd" />
    </mask>
  </defs>
  <g transform="matrix(1 0 0 1 -261 -106 )">
    <path d="M 48 15  L 0 98  L 48 198  L 193 171  L 242 43  L 174 0  L 48 15  Z " fill-rule="nonzero" fill="#ffffff" stroke="none" fill-opacity="0" transform="matrix(1 0 0 1 261 106 )" />
    <path d="M 48 15  L 0 98  L 48 198  L 193 171  L 242 43  L 174 0  L 48 15  Z " stroke-width="4" stroke="#aaaaaa" fill="none" transform="matrix(1 0 0 1 261 106 )" mask="url(#clip37)" />
  </g>
</svg>