<?xml version="1.0" encoding="utf-8"?>
<svg version="1.1" xmlns:xlink="http://www.w3.org/1999/xlink" width="15px" height="15px" xmlns="http://www.w3.org/2000/svg">
  <g transform="matrix(1 0 0 1 -1004 -66 )">
    <path d="M 1011.5 66  C 1015.7 66  1019 69.3  1019 73.5  C 1019 77.7  1015.7 81  1011.5 81  C 1007.3 81  1004 77.7  1004 73.5  C 1004 69.3  1007.3 66  1011.5 66  Z " fill-rule="nonzero" fill="#0e0e18" stroke="none" fill-opacity="0" />
    <path d="M 1011.5 66.5  C 1015.42 66.5  1018.5 69.58  1018.5 73.5  C 1018.5 77.42  1015.42 80.5  1011.5 80.5  C 1007.58 80.5  1004.5 77.42  1004.5 73.5  C 1004.5 69.58  1007.58 66.5  1011.5 66.5  Z " stroke-width="1" stroke="#b6b5b5" fill="none" />
  </g>
</svg>