<?xml version="1.0" encoding="utf-8"?>
<svg version="1.1" xmlns:xlink="http://www.w3.org/1999/xlink" width="15px" height="15px" xmlns="http://www.w3.org/2000/svg">
  <g transform="matrix(1 0 0 1 -1004 -97 )">
    <path d="M 1011.5 97  C 1015.7 97  1019 100.3  1019 104.5  C 1019 108.7  1015.7 112  1011.5 112  C 1007.3 112  1004 108.7  1004 104.5  C 1004 100.3  1007.3 97  1011.5 97  Z " fill-rule="nonzero" fill="#0e0e18" stroke="none" fill-opacity="0.811764705882353" />
    <path d="M 1011.5 97.5  C 1015.42 97.5  1018.5 100.58  1018.5 104.5  C 1018.5 108.42  1015.42 111.5  1011.5 111.5  C 1007.58 111.5  1004.5 108.42  1004.5 104.5  C 1004.5 100.58  1007.58 97.5  1011.5 97.5  Z " stroke-width="1" stroke="#b6b5b5" fill="none" />
  </g>
</svg>