<?xml version="1.0" encoding="utf-8"?>
<svg version="1.1" xmlns:xlink="http://www.w3.org/1999/xlink" width="41px" height="41px" xmlns="http://www.w3.org/2000/svg">
  <defs>
    <filter x="625px" y="242px" width="41px" height="41px" filterUnits="userSpaceOnUse" id="filter29">
      <feOffset dx="0" dy="0" in="SourceAlpha" result="shadowOffsetInner" />
      <feGaussianBlur stdDeviation="5" in="shadowOffsetInner" result="shadowGaussian" />
      <feComposite in2="shadowGaussian" operator="atop" in="SourceAlpha" result="shadowComposite" />
      <feColorMatrix type="matrix" values="0 0 0 0 1  0 0 0 0 0.988235294117647  0 0 0 0 0.988235294117647  0 0 0 1 0  " in="shadowComposite" />
    </filter>
    <g id="widget30">
      <path d="M 645.5 252  C 651.38 252  656 256.62  656 262.5  C 656 268.38  651.38 273  645.5 273  C 639.62 273  635 268.38  635 262.5  C 635 256.62  639.62 252  645.5 252  Z " fill-rule="nonzero" fill="#ffffff" stroke="none" />
      <path d="M 645.5 252.5  C 651.1 252.5  655.5 256.9  655.5 262.5  C 655.5 268.1  651.1 272.5  645.5 272.5  C 639.9 272.5  635.5 268.1  635.5 262.5  C 635.5 256.9  639.9 252.5  645.5 252.5  Z " stroke-width="1" stroke="#e3dede" fill="none" />
    </g>
  </defs>
  <g transform="matrix(1 0 0 1 -625 -242 )">
    <use xlink:href="#widget30" filter="url(#filter29)" />
    <use xlink:href="#widget30" />
  </g>
</svg>