<?xml version="1.0" encoding="utf-8"?>
<svg version="1.1" xmlns:xlink="http://www.w3.org/1999/xlink" width="10px" height="10px" xmlns="http://www.w3.org/2000/svg">
  <g transform="matrix(1 0 0 1 -1037 -75 )">
    <path d="M 1042 75  C 1044.8 75  1047 77.2  1047 80  C 1047 82.8  1044.8 85  1042 85  C 1039.2 85  1037 82.8  1037 80  C 1037 77.2  1039.2 75  1042 75  Z " fill-rule="nonzero" fill="#cb00ff" stroke="none" />
    <path d="M 1042 75.5  C 1044.52 75.5  1046.5 77.48  1046.5 80  C 1046.5 82.52  1044.52 84.5  1042 84.5  C 1039.48 84.5  1037.5 82.52  1037.5 80  C 1037.5 77.48  1039.48 75.5  1042 75.5  Z " stroke-width="1" stroke="#cb00ff" fill="none" />
  </g>
</svg>