<?xml version="1.0" encoding="utf-8"?>
<svg version="1.1" xmlns:xlink="http://www.w3.org/1999/xlink" width="10px" height="10px" xmlns="http://www.w3.org/2000/svg">
  <g transform="matrix(1 0 0 1 -925 -75 )">
    <path d="M 930 75  C 932.8 75  935 77.2  935 80  C 935 82.8  932.8 85  930 85  C 927.2 85  925 82.8  925 80  C 925 77.2  927.2 75  930 75  Z " fill-rule="nonzero" fill="#ffd100" stroke="none" />
    <path d="M 930 75.5  C 932.52 75.5  934.5 77.48  934.5 80  C 934.5 82.52  932.52 84.5  930 84.5  C 927.48 84.5  925.5 82.52  925.5 80  C 925.5 77.48  927.48 75.5  930 75.5  Z " stroke-width="1" stroke="#ffd100" fill="none" />
  </g>
</svg>