<?xml version="1.0" encoding="utf-8"?>
<svg version="1.1" xmlns:xlink="http://www.w3.org/1999/xlink" width="10px" height="10px" xmlns="http://www.w3.org/2000/svg">
  <g transform="matrix(1 0 0 1 -1092 -75 )">
    <path d="M 1097 75  C 1099.8 75  1102 77.2  1102 80  C 1102 82.8  1099.8 85  1097 85  C 1094.2 85  1092 82.8  1092 80  C 1092 77.2  1094.2 75  1097 75  Z " fill-rule="nonzero" fill="#60ff09" stroke="none" />
    <path d="M 1097 75.5  C 1099.52 75.5  1101.5 77.48  1101.5 80  C 1101.5 82.52  1099.52 84.5  1097 84.5  C 1094.48 84.5  1092.5 82.52  1092.5 80  C 1092.5 77.48  1094.48 75.5  1097 75.5  Z " stroke-width="1" stroke="#60ff09" fill="none" />
  </g>
</svg>