<?xml version="1.0" encoding="utf-8"?>
<svg version="1.1" xmlns:xlink="http://www.w3.org/1999/xlink" width="5px" height="5px" xmlns="http://www.w3.org/2000/svg">
  <g transform="matrix(1 0 0 1 -508 -174 )">
    <path d="M 510.5 174  C 511.9 174  513 175.1  513 176.5  C 513 177.9  511.9 179  510.5 179  C 509.1 179  508 177.9  508 176.5  C 508 175.1  509.1 174  510.5 174  Z " fill-rule="nonzero" fill="#cb00ff" stroke="none" />
    <path d="M 510.5 174.5  C 511.62 174.5  512.5 175.38  512.5 176.5  C 512.5 177.62  511.62 178.5  510.5 178.5  C 509.38 178.5  508.5 177.62  508.5 176.5  C 508.5 175.38  509.38 174.5  510.5 174.5  Z " stroke-width="1" stroke="#cb00ff" fill="none" />
  </g>
</svg>