<?xml version="1.0" encoding="utf-8"?>
<svg version="1.1" xmlns:xlink="http://www.w3.org/1999/xlink" width="5px" height="5px" xmlns="http://www.w3.org/2000/svg">
  <g transform="matrix(1 0 0 1 -218 -350 )">
    <path d="M 220.5 350  C 221.9 350  223 351.1  223 352.5  C 223 353.9  221.9 355  220.5 355  C 219.1 355  218 353.9  218 352.5  C 218 351.1  219.1 350  220.5 350  Z " fill-rule="nonzero" fill="#ff0970" stroke="none" />
    <path d="M 220.5 350.5  C 221.62 350.5  222.5 351.38  222.5 352.5  C 222.5 353.62  221.62 354.5  220.5 354.5  C 219.38 354.5  218.5 353.62  218.5 352.5  C 218.5 351.38  219.38 350.5  220.5 350.5  Z " stroke-width="1" stroke="#ff0970" fill="none" />
  </g>
</svg>