<?xml version="1.0" encoding="utf-8"?>
<svg version="1.1" xmlns:xlink="http://www.w3.org/1999/xlink" width="10px" height="10px" xmlns="http://www.w3.org/2000/svg">
  <g transform="matrix(1 0 0 1 -981 -75 )">
    <path d="M 986 75  C 988.8 75  991 77.2  991 80  C 991 82.8  988.8 85  986 85  C 983.2 85  981 82.8  981 80  C 981 77.2  983.2 75  986 75  Z " fill-rule="nonzero" fill="#ff0970" stroke="none" />
    <path d="M 986 75.5  C 988.52 75.5  990.5 77.48  990.5 80  C 990.5 82.52  988.52 84.5  986 84.5  C 983.48 84.5  981.5 82.52  981.5 80  C 981.5 77.48  983.48 75.5  986 75.5  Z " stroke-width="1" stroke="#ff0970" fill="none" />
  </g>
</svg>