<?xml version="1.0" encoding="utf-8"?>
<svg version="1.1" xmlns:xlink="http://www.w3.org/1999/xlink" width="21px" height="21px" xmlns="http://www.w3.org/2000/svg">
  <g transform="matrix(1 0 0 1 -918 -162 )">
    <path d="M 928.5 162  C 934.38 162  939 166.62  939 172.5  C 939 178.38  934.38 183  928.5 183  C 922.62 183  918 178.38  918 172.5  C 918 166.62  922.62 162  928.5 162  Z " fill-rule="nonzero" fill="#ffffff" stroke="none" fill-opacity="0" />
    <path d="M 928.5 162.5  C 934.1 162.5  938.5 166.9  938.5 172.5  C 938.5 178.1  934.1 182.5  928.5 182.5  C 922.9 182.5  918.5 178.1  918.5 172.5  C 918.5 166.9  922.9 162.5  928.5 162.5  Z " stroke-width="1" stroke="#ffffff" fill="none" />
  </g>
</svg>