<?xml version="1.0" encoding="utf-8"?>
<svg version="1.1" xmlns:xlink="http://www.w3.org/1999/xlink" width="67px" height="67px" xmlns="http://www.w3.org/2000/svg">
  <g transform="matrix(1 0 0 1 -1115 -116 )">
    <path d="M 1148.5 116  C 1167.26 116  1182 130.74  1182 149.5  C 1182 168.26  1167.26 183  1148.5 183  C 1129.74 183  1115 168.26  1115 149.5  C 1115 130.74  1129.74 116  1148.5 116  Z " fill-rule="nonzero" fill="#ffffff" stroke="none" fill-opacity="0" />
    <path d="M 1148.5 116.5  C 1166.98 116.5  1181.5 131.02  1181.5 149.5  C 1181.5 167.98  1166.98 182.5  1148.5 182.5  C 1130.02 182.5  1115.5 167.98  1115.5 149.5  C 1115.5 131.02  1130.02 116.5  1148.5 116.5  Z " stroke-width="1" stroke="#ffffff" fill="none" />
  </g>
</svg>