<?xml version="1.0" encoding="utf-8"?>
<svg version="1.1" xmlns:xlink="http://www.w3.org/1999/xlink" width="50px" height="50px" xmlns="http://www.w3.org/2000/svg">
  <g transform="matrix(1 0 0 1 -1050 -133 )">
    <path d="M 1075 133  C 1089 133  1100 144  1100 158  C 1100 172  1089 183  1075 183  C 1061 183  1050 172  1050 158  C 1050 144  1061 133  1075 133  Z " fill-rule="nonzero" fill="#ffffff" stroke="none" fill-opacity="0" />
    <path d="M 1075 133.5  C 1088.72 133.5  1099.5 144.28  1099.5 158  C 1099.5 171.72  1088.72 182.5  1075 182.5  C 1061.28 182.5  1050.5 171.72  1050.5 158  C 1050.5 144.28  1061.28 133.5  1075 133.5  Z " stroke-width="1" stroke="#ffffff" fill="none" />
  </g>
</svg>