<?xml version="1.0" encoding="utf-8"?>
<svg version="1.1" xmlns:xlink="http://www.w3.org/1999/xlink" width="13px" height="13px" xmlns="http://www.w3.org/2000/svg">
  <g transform="matrix(1 0 0 1 -489 -406 )">
    <path d="M 495.5 406.5  C 498.86 406.5  501.5 409.14  501.5 412.5  C 501.5 415.86  498.86 418.5  495.5 418.5  C 492.14 418.5  489.5 415.86  489.5 412.5  C 489.5 409.14  492.14 406.5  495.5 406.5  Z " fill-rule="nonzero" fill="#ffc000" stroke="none" fill-opacity="0.737254901960784" />
    <path d="M 495.5 406.5  C 498.86 406.5  501.5 409.14  501.5 412.5  C 501.5 415.86  498.86 418.5  495.5 418.5  C 492.14 418.5  489.5 415.86  489.5 412.5  C 489.5 409.14  492.14 406.5  495.5 406.5  Z " stroke-width="1" stroke="#ffc000" fill="none" stroke-opacity="0.709803921568627" />
  </g>
</svg>