<?xml version="1.0" encoding="utf-8"?>
<svg version="1.1" xmlns:xlink="http://www.w3.org/1999/xlink" width="26px" height="26px" xmlns="http://www.w3.org/2000/svg">
  <g transform="matrix(1 0 0 1 -954 -157 )">
    <path d="M 967 157  C 974.28 157  980 162.72  980 170  C 980 177.28  974.28 183  967 183  C 959.72 183  954 177.28  954 170  C 954 162.72  959.72 157  967 157  Z " fill-rule="nonzero" fill="#ffffff" stroke="none" fill-opacity="0" />
    <path d="M 967 157.5  C 974 157.5  979.5 163  979.5 170  C 979.5 177  974 182.5  967 182.5  C 960 182.5  954.5 177  954.5 170  C 954.5 163  960 157.5  967 157.5  Z " stroke-width="1" stroke="#ffffff" fill="none" />
  </g>
</svg>