<?xml version="1.0" encoding="utf-8"?>
<svg version="1.1" xmlns:xlink="http://www.w3.org/1999/xlink" width="39px" height="39px" xmlns="http://www.w3.org/2000/svg">
  <g transform="matrix(1 0 0 1 -996 -144 )">
    <path d="M 1015.5 144  C 1026.42 144  1035 152.58  1035 163.5  C 1035 174.42  1026.42 183  1015.5 183  C 1004.58 183  996 174.42  996 163.5  C 996 152.58  1004.58 144  1015.5 144  Z " fill-rule="nonzero" fill="#ffffff" stroke="none" fill-opacity="0" />
    <path d="M 1015.5 144.5  C 1026.14 144.5  1034.5 152.86  1034.5 163.5  C 1034.5 174.14  1026.14 182.5  1015.5 182.5  C 1004.86 182.5  996.5 174.14  996.5 163.5  C 996.5 152.86  1004.86 144.5  1015.5 144.5  Z " stroke-width="1" stroke="#ffffff" fill="none" />
  </g>
</svg>