<?xml version="1.0" encoding="utf-8"?>
<svg version="1.1" xmlns:xlink="http://www.w3.org/1999/xlink" width="48px" height="48px" xmlns="http://www.w3.org/2000/svg">
  <g transform="matrix(1 0 0 1 -783 -367 )">
    <path d="M 807 367  C 820.44 367  831 377.56  831 391  C 831 404.44  820.44 415  807 415  C 793.56 415  783 404.44  783 391  C 783 377.56  793.56 367  807 367  Z " fill-rule="nonzero" fill="#d35206" stroke="none" />
    <path d="M 807 367.5  C 820.16 367.5  830.5 377.84  830.5 391  C 830.5 404.16  820.16 414.5  807 414.5  C 793.84 414.5  783.5 404.16  783.5 391  C 783.5 377.84  793.84 367.5  807 367.5  Z " stroke-width="1" stroke="#d35206" fill="none" />
  </g>
</svg>