<?xml version="1.0" encoding="utf-8"?>
<svg version="1.1" xmlns:xlink="http://www.w3.org/1999/xlink" width="26px" height="26px" xmlns="http://www.w3.org/2000/svg">
  <g transform="matrix(1 0 0 1 -532 -394 )">
    <path d="M 545 394  C 552.28 394  558 399.72  558 407  C 558 414.28  552.28 420  545 420  C 537.72 420  532 414.28  532 407  C 532 399.72  537.72 394  545 394  Z " fill-rule="nonzero" fill="#dc6705" stroke="none" />
    <path d="M 545 394.5  C 552 394.5  557.5 400  557.5 407  C 557.5 414  552 419.5  545 419.5  C 538 419.5  532.5 414  532.5 407  C 532.5 400  538 394.5  545 394.5  Z " stroke-width="1" stroke="#dc6705" fill="none" />
  </g>
</svg>