<?xml version="1.0" encoding="utf-8"?>
<svg version="1.1" xmlns:xlink="http://www.w3.org/1999/xlink" width="71px" height="71px" xmlns="http://www.w3.org/2000/svg">
  <g transform="matrix(1 0 0 1 -660 -535 )">
    <path d="M 695.5 535  C 715.38 535  731 550.62  731 570.5  C 731 590.38  715.38 606  695.5 606  C 675.62 606  660 590.38  660 570.5  C 660 550.62  675.62 535  695.5 535  Z " fill-rule="nonzero" fill="#d35206" stroke="none" />
    <path d="M 695.5 535.5  C 715.1 535.5  730.5 550.9  730.5 570.5  C 730.5 590.1  715.1 605.5  695.5 605.5  C 675.9 605.5  660.5 590.1  660.5 570.5  C 660.5 550.9  675.9 535.5  695.5 535.5  Z " stroke-width="1" stroke="#d35206" fill="none" />
  </g>
</svg>