<?xml version="1.0" encoding="utf-8"?>
<svg version="1.1" xmlns:xlink="http://www.w3.org/1999/xlink" width="50px" height="50px" xmlns="http://www.w3.org/2000/svg">
  <g transform="matrix(1 0 0 1 -879 -489 )">
    <path d="M 904 489  C 918 489  929 500  929 514  C 929 528  918 539  904 539  C 890 539  879 528  879 514  C 879 500  890 489  904 489  Z " fill-rule="nonzero" fill="#be2809" stroke="none" />
    <path d="M 904 489.5  C 917.72 489.5  928.5 500.28  928.5 514  C 928.5 527.72  917.72 538.5  904 538.5  C 890.28 538.5  879.5 527.72  879.5 514  C 879.5 500.28  890.28 489.5  904 489.5  Z " stroke-width="1" stroke="#bf2a09" fill="none" />
  </g>
</svg>