<?xml version="1.0" encoding="utf-8"?>
<svg version="1.1" xmlns:xlink="http://www.w3.org/1999/xlink" width="15px" height="15px" xmlns="http://www.w3.org/2000/svg">
  <g transform="matrix(1 0 0 1 -164 -176 )">
    <path d="M 171.5 176  C 175.7 176  179 179.3  179 183.5  C 179 187.7  175.7 191  171.5 191  C 167.3 191  164 187.7  164 183.5  C 164 179.3  167.3 176  171.5 176  Z " fill-rule="nonzero" fill="#f4942b" stroke="none" fill-opacity="0.768627450980392" />
    <path d="M 171.5 176.5  C 175.42 176.5  178.5 179.58  178.5 183.5  C 178.5 187.42  175.42 190.5  171.5 190.5  C 167.58 190.5  164.5 187.42  164.5 183.5  C 164.5 179.58  167.58 176.5  171.5 176.5  Z " stroke-width="1" stroke="#f4942b" fill="none" />
  </g>
</svg>