<?xml version="1.0" encoding="utf-8"?>
<svg version="1.1" xmlns:xlink="http://www.w3.org/1999/xlink" width="58px" height="58px" xmlns="http://www.w3.org/2000/svg">
  <g transform="matrix(1 0 0 1 -33 -226 )">
    <path d="M 62 226  C 78.24 226  91 238.76  91 255  C 91 271.24  78.24 284  62 284  C 45.76 284  33 271.24  33 255  C 33 238.76  45.76 226  62 226  Z " fill-rule="nonzero" fill="#f4942b" stroke="none" fill-opacity="0.768627450980392" />
    <path d="M 62 226.5  C 77.96 226.5  90.5 239.04  90.5 255  C 90.5 270.96  77.96 283.5  62 283.5  C 46.04 283.5  33.5 270.96  33.5 255  C 33.5 239.04  46.04 226.5  62 226.5  Z " stroke-width="1" stroke="#f4942b" fill="none" />
  </g>
</svg>