<?xml version="1.0" encoding="utf-8"?>
<svg version="1.1" xmlns:xlink="http://www.w3.org/1999/xlink" width="46px" height="46px" xmlns="http://www.w3.org/2000/svg">
  <g transform="matrix(1 0 0 1 -136 -251 )">
    <path d="M 159 251  C 171.88 251  182 261.12  182 274  C 182 286.88  171.88 297  159 297  C 146.12 297  136 286.88  136 274  C 136 261.12  146.12 251  159 251  Z " fill-rule="nonzero" fill="#f4942b" stroke="none" fill-opacity="0.768627450980392" />
    <path d="M 159 251.5  C 171.6 251.5  181.5 261.4  181.5 274  C 181.5 286.6  171.6 296.5  159 296.5  C 146.4 296.5  136.5 286.6  136.5 274  C 136.5 261.4  146.4 251.5  159 251.5  Z " stroke-width="1" stroke="#f4942b" fill="none" />
  </g>
</svg>