<?xml version="1.0" encoding="utf-8"?>
<svg version="1.1" xmlns:xlink="http://www.w3.org/1999/xlink" width="39px" height="39px" xmlns="http://www.w3.org/2000/svg">
  <g transform="matrix(1 0 0 1 -90 -171 )">
    <path d="M 109.5 171  C 120.42 171  129 179.58  129 190.5  C 129 201.42  120.42 210  109.5 210  C 98.58 210  90 201.42  90 190.5  C 90 179.58  98.58 171  109.5 171  Z " fill-rule="nonzero" fill="#f4942b" stroke="none" fill-opacity="0.768627450980392" />
    <path d="M 109.5 171.5  C 120.14 171.5  128.5 179.86  128.5 190.5  C 128.5 201.14  120.14 209.5  109.5 209.5  C 98.86 209.5  90.5 201.14  90.5 190.5  C 90.5 179.86  98.86 171.5  109.5 171.5  Z " stroke-width="1" stroke="#f4942b" fill="none" />
  </g>
</svg>