<?xml version="1.0" encoding="utf-8"?>
<svg version="1.1" xmlns:xlink="http://www.w3.org/1999/xlink" width="30px" height="30px" xmlns="http://www.w3.org/2000/svg">
  <g transform="matrix(1 0 0 1 -249 -259 )">
    <path d="M 264 259  C 272.4 259  279 265.6  279 274  C 279 282.4  272.4 289  264 289  C 255.6 289  249 282.4  249 274  C 249 265.6  255.6 259  264 259  Z " fill-rule="nonzero" fill="#f4942b" stroke="none" fill-opacity="0.768627450980392" />
    <path d="M 264 259.5  C 272.12 259.5  278.5 265.88  278.5 274  C 278.5 282.12  272.12 288.5  264 288.5  C 255.88 288.5  249.5 282.12  249.5 274  C 249.5 265.88  255.88 259.5  264 259.5  Z " stroke-width="1" stroke="#f4942b" fill="none" />
  </g>
</svg>