<?xml version="1.0" encoding="utf-8"?>
<svg version="1.1" xmlns:xlink="http://www.w3.org/1999/xlink" width="5px" height="5px" xmlns="http://www.w3.org/2000/svg">
  <g transform="matrix(1 0 0 1 -505 -242 )">
    <path d="M 507.5 242  C 508.9 242  510 243.1  510 244.5  C 510 245.9  508.9 247  507.5 247  C 506.1 247  505 245.9  505 244.5  C 505 243.1  506.1 242  507.5 242  Z " fill-rule="nonzero" fill="#dc6705" stroke="none" />
    <path d="M 507.5 242.5  C 508.62 242.5  509.5 243.38  509.5 244.5  C 509.5 245.62  508.62 246.5  507.5 246.5  C 506.38 246.5  505.5 245.62  505.5 244.5  C 505.5 243.38  506.38 242.5  507.5 242.5  Z " stroke-width="1" stroke="#dc6705" fill="none" />
  </g>
</svg>