<?xml version="1.0" encoding="utf-8"?>
<svg version="1.1" xmlns:xlink="http://www.w3.org/1999/xlink" width="5px" height="5px" xmlns="http://www.w3.org/2000/svg">
  <g transform="matrix(1 0 0 1 -773 -392 )">
    <path d="M 775.5 392  C 776.9 392  778 393.1  778 394.5  C 778 395.9  776.9 397  775.5 397  C 774.1 397  773 395.9  773 394.5  C 773 393.1  774.1 392  775.5 392  Z " fill-rule="nonzero" fill="#00edff" stroke="none" />
    <path d="M 775.5 392.5  C 776.62 392.5  777.5 393.38  777.5 394.5  C 777.5 395.62  776.62 396.5  775.5 396.5  C 774.38 396.5  773.5 395.62  773.5 394.5  C 773.5 393.38  774.38 392.5  775.5 392.5  Z " stroke-width="1" stroke="#00edff" fill="none" />
  </g>
</svg>