<?xml version="1.0" encoding="utf-8"?>
<svg version="1.1" xmlns:xlink="http://www.w3.org/1999/xlink" width="5px" height="5px" xmlns="http://www.w3.org/2000/svg">
  <g transform="matrix(1 0 0 1 -562 -427 )">
    <path d="M 564.5 427  C 565.9 427  567 428.1  567 429.5  C 567 430.9  565.9 432  564.5 432  C 563.1 432  562 430.9  562 429.5  C 562 428.1  563.1 427  564.5 427  Z " fill-rule="nonzero" fill="#60ff09" stroke="none" />
    <path d="M 564.5 427.5  C 565.62 427.5  566.5 428.38  566.5 429.5  C 566.5 430.62  565.62 431.5  564.5 431.5  C 563.38 431.5  562.5 430.62  562.5 429.5  C 562.5 428.38  563.38 427.5  564.5 427.5  Z " stroke-width="1" stroke="#60ff09" fill="none" />
  </g>
</svg>