<?xml version="1.0" encoding="utf-8"?>
<svg version="1.1" xmlns:xlink="http://www.w3.org/1999/xlink" width="5px" height="5px" xmlns="http://www.w3.org/2000/svg">
  <g transform="matrix(1 0 0 1 -255 -237 )">
    <path d="M 257.5 237  C 258.9 237  260 238.1  260 239.5  C 260 240.9  258.9 242  257.5 242  C 256.1 242  255 240.9  255 239.5  C 255 238.1  256.1 237  257.5 237  Z " fill-rule="nonzero" fill="#ffd100" stroke="none" />
    <path d="M 257.5 237.5  C 258.62 237.5  259.5 238.38  259.5 239.5  C 259.5 240.62  258.62 241.5  257.5 241.5  C 256.38 241.5  255.5 240.62  255.5 239.5  C 255.5 238.38  256.38 237.5  257.5 237.5  Z " stroke-width="1" stroke="#ffd100" fill="none" />
  </g>
</svg>