<?xml version="1.0" encoding="utf-8"?>
<svg version="1.1" xmlns:xlink="http://www.w3.org/1999/xlink" width="5px" height="5px" xmlns="http://www.w3.org/2000/svg">
  <g transform="matrix(1 0 0 1 -470 -370 )">
    <path d="M 472.5 370  C 473.9 370  475 371.1  475 372.5  C 475 373.9  473.9 375  472.5 375  C 471.1 375  470 373.9  470 372.5  C 470 371.1  471.1 370  472.5 370  Z " fill-rule="nonzero" fill="#005eff" stroke="none" />
    <path d="M 472.5 370.5  C 473.62 370.5  474.5 371.38  474.5 372.5  C 474.5 373.62  473.62 374.5  472.5 374.5  C 471.38 374.5  470.5 373.62  470.5 372.5  C 470.5 371.38  471.38 370.5  472.5 370.5  Z " stroke-width="1" stroke="#005eff" fill="none" />
  </g>
</svg>