<?xml version="1.0" encoding="utf-8"?>
<svg version="1.1" xmlns:xlink="http://www.w3.org/1999/xlink" width="10px" height="10px" xmlns="http://www.w3.org/2000/svg">
  <g transform="matrix(1 0 0 1 -1148 -75 )">
    <path d="M 1153 75  C 1155.8 75  1158 77.2  1158 80  C 1158 82.8  1155.8 85  1153 85  C 1150.2 85  1148 82.8  1148 80  C 1148 77.2  1150.2 75  1153 75  Z " fill-rule="nonzero" fill="#00edff" stroke="none" />
    <path d="M 1153 75.5  C 1155.52 75.5  1157.5 77.48  1157.5 80  C 1157.5 82.52  1155.52 84.5  1153 84.5  C 1150.48 84.5  1148.5 82.52  1148.5 80  C 1148.5 77.48  1150.48 75.5  1153 75.5  Z " stroke-width="1" stroke="#00edff" fill="none" />
  </g>
</svg>