<?xml version="1.0" encoding="utf-8"?>
<svg version="1.1" xmlns:xlink="http://www.w3.org/1999/xlink" width="21px" height="21px" xmlns="http://www.w3.org/2000/svg">
  <g transform="matrix(1 0 0 1 -430 -29 )">
    <path d="M 19.509765625 7.615234375  L 17.541015625 5.646484375  L 12.6875 10.5  L 17.541015625 15.353515625  L 19.509765625 13.384765625  C 19.7740885416667 13.1022135416667  20.0930989583333 13.0384114583333  20.466796875 13.193359375  C 20.822265625 13.3483072916667  21 13.6171875  21 14  L 21 20.125  C 21 20.3619791666667  20.9134114583333 20.5670572916667  20.740234375 20.740234375  C 20.5670572916667 20.9134114583333  20.3619791666667 21  20.125 21  L 14 21  C 13.6171875 21  13.3483072916667 20.8177083333333  13.193359375 20.453125  C 13.0384114583333 20.09765625  13.1022135416667 19.783203125  13.384765625 19.509765625  L 15.353515625 17.541015625  L 10.5 12.6875  L 5.646484375 17.541015625  L 7.615234375 19.509765625  C 7.89778645833331 19.783203125  7.96158854166669 20.09765625  7.806640625 20.453125  C 7.65169270833331 20.8177083333333  7.3828125 21  7 21  L 0.875 21  C 0.638020833333314 21  0.432942708333314 20.9134114583333  0.259765625 20.740234375  C 0.0865885416666856 20.5670572916667  0 20.3619791666667  0 20.125  L 0 14  C 0 13.6171875  0.182291666666686 13.3483072916667  0.546875 13.193359375  C 0.90234375 13.0384114583333  1.216796875 13.1022135416667  1.490234375 13.384765625  L 3.458984375 15.353515625  L 8.3125 10.5  L 3.458984375 5.646484375  L 1.490234375 7.615234375  C 1.31705729166669 7.78841145833334  1.11197916666669 7.875  0.875 7.875  C 0.765625 7.875  0.65625 7.85221354166667  0.546875 7.806640625  C 0.182291666666686 7.65169270833333  0 7.3828125  0 7  L 0 0.875  C 0 0.638020833333329  0.0865885416666856 0.432942708333329  0.259765625 0.259765625  C 0.432942708333314 0.0865885416666643  0.638020833333314 0  0.875 0  L 7 0  C 7.3828125 0  7.65169270833331 0.182291666666664  7.806640625 0.546875  C 7.96158854166669 0.90234375  7.89778645833331 1.216796875  7.615234375 1.490234375  L 5.646484375 3.458984375  L 10.5 8.3125  L 15.353515625 3.458984375  L 13.384765625 1.490234375  C 13.1022135416667 1.216796875  13.0384114583333 0.90234375  13.193359375 0.546875  C 13.3483072916667 0.182291666666664  13.6171875 0  14 0  L 20.125 0  C 20.3619791666667 0  20.5670572916667 0.0865885416666643  20.740234375 0.259765625  C 20.9134114583333 0.432942708333329  21 0.638020833333329  21 0.875  L 21 7  C 21 7.3828125  20.822265625 7.65169270833333  20.466796875 7.806640625  C 20.3483072916667 7.85221354166667  20.234375 7.875  20.125 7.875  C 19.8880208333333 7.875  19.6829427083333 7.78841145833334  19.509765625 7.615234375  Z " fill-rule="nonzero" fill="#1695e5" stroke="none" transform="matrix(1 0 0 1 430 29 )" />
  </g>
</svg>