<?xml version="1.0" encoding="utf-8"?>
<svg version="1.1" xmlns:xlink="http://www.w3.org/1999/xlink" width="21px" height="21px" xmlns="http://www.w3.org/2000/svg">
  <g transform="matrix(1 0 0 1 -500 -29 )">
    <path d="M 12.8031850961538 8.19681490384619  C 12.8831129807692 8.27674278846155  12.9230769230769 8.37139423076928  12.9230769230769 8.48076923076928  L 12.9230769230769 9.28846153846155  C 12.9230769230769 9.39783653846155  12.8831129807692 9.49248798076928  12.8031850961538 9.57241586538464  C 12.7232572115385 9.65234375  12.6286057692308 9.69230769230774  12.5192307692308 9.69230769230774  L 9.69230769230768 9.69230769230774  L 9.69230769230768 12.5192307692307  C 9.69230769230768 12.6286057692307  9.65234375 12.7232572115385  9.57241586538461 12.8031850961538  C 9.49248798076923 12.8831129807693  9.39783653846155 12.9230769230769  9.28846153846155 12.9230769230769  L 8.48076923076923 12.9230769230769  C 8.37139423076923 12.9230769230769  8.27674278846155 12.8831129807693  8.19681490384616 12.8031850961538  C 8.11688701923077 12.7232572115385  8.07692307692307 12.6286057692307  8.07692307692307 12.5192307692307  L 8.07692307692307 9.69230769230774  L 5.25 9.69230769230774  C 5.140625 9.69230769230774  5.04597355769232 9.65234375  4.96604567307693 9.57241586538464  C 4.88611778846155 9.49248798076928  4.84615384615384 9.39783653846155  4.84615384615384 9.28846153846155  L 4.84615384615384 8.48076923076928  C 4.84615384615384 8.37139423076928  4.88611778846155 8.27674278846155  4.96604567307693 8.19681490384619  C 5.04597355769232 8.11688701923072  5.140625 8.07692307692309  5.25 8.07692307692309  L 8.07692307692307 8.07692307692309  L 8.07692307692307 5.25  C 8.07692307692307 5.140625  8.11688701923077 5.04597355769226  8.19681490384616 4.96604567307691  C 8.27674278846155 4.88611778846155  8.37139423076923 4.84615384615381  8.48076923076923 4.84615384615381  L 9.28846153846155 4.84615384615381  C 9.39783653846155 4.84615384615381  9.49248798076923 4.88611778846155  9.57241586538461 4.96604567307691  C 9.65234375 5.04597355769226  9.69230769230768 5.140625  9.69230769230768 5.25  L 9.69230769230768 8.07692307692309  L 12.5192307692308 8.07692307692309  C 12.6286057692308 8.07692307692309  12.7232572115385 8.11688701923072  12.8031850961538 8.19681490384619  Z M 12.87890625 12.87890625  C 13.9852764423077 11.7725360576923  14.5384615384615 10.4411057692307  14.5384615384615 8.88461538461536  C 14.5384615384615 7.328125  13.9852764423077 5.99669471153845  12.87890625 4.89032451923072  C 11.7725360576923 3.78395432692309  10.4411057692308 3.23076923076928  8.88461538461539 3.23076923076928  C 7.328125 3.23076923076928  5.99669471153845 3.78395432692309  4.89032451923077 4.89032451923072  C 3.78395432692307 5.99669471153845  3.23076923076923 7.328125  3.23076923076923 8.88461538461536  C 3.23076923076923 10.4411057692307  3.78395432692307 11.7725360576923  4.89032451923077 12.87890625  C 5.99669471153845 13.9852764423077  7.328125 14.5384615384615  8.88461538461539 14.5384615384615  C 10.4411057692308 14.5384615384615  11.7725360576923 13.9852764423077  12.87890625 12.87890625  Z M 20.5330528846154 18.2487980769231  C 20.8443509615385 18.5600961538462  21 18.9387019230769  21 19.3846153846154  C 21 19.8305288461538  20.8422475961538 20.2112379807693  20.5267427884615 20.5267427884615  C 20.2112379807692 20.8422475961538  19.8305288461538 21  19.3846153846154 21  C 18.9302884615385 21  18.5516826923077 20.8401442307693  18.2487980769231 20.5204326923077  L 13.9200721153846 16.2043269230769  C 12.4140625 17.2475961538462  10.7355769230769 17.7692307692307  8.88461538461539 17.7692307692307  C 7.68149038461539 17.7692307692307  6.53094951923077 17.5357572115385  5.43299278846155 17.0688100961538  C 4.33503605769232 16.6018629807693  3.38852163461539 15.9708533653846  2.59344951923077 15.17578125  C 1.79837740384616 14.3807091346154  1.16736778846155 13.4341947115385  0.700420673076934 12.3362379807693  C 0.233473557692321 11.23828125  0 10.0877403846154  0 8.88461538461536  C 0 7.68149038461536  0.233473557692321 6.53094951923072  0.700420673076934 5.43299278846155  C 1.16736778846155 4.33503605769226  1.79837740384616 3.38852163461536  2.59344951923077 2.59344951923072  C 3.38852163461539 1.79837740384619  4.33503605769232 1.16736778846155  5.43299278846155 0.700420673076906  C 6.53094951923077 0.233473557692264  7.68149038461539 0  8.88461538461539 0  C 10.0877403846154 0  11.23828125 0.233473557692264  12.3362379807692 0.700420673076906  C 13.4341947115385 1.16736778846155  14.3807091346154 1.79837740384619  15.17578125 2.59344951923072  C 15.9708533653846 3.38852163461536  16.6018629807692 4.33503605769226  17.0688100961538 5.43299278846155  C 17.5357572115385 6.53094951923072  17.7692307692308 7.68149038461536  17.7692307692308 8.88461538461536  C 17.7692307692308 10.7355769230769  17.2475961538462 12.4140625  16.2043269230769 13.9200721153846  L 20.5330528846154 18.2487980769231  Z " fill-rule="nonzero" fill="#1695e5" stroke="none" transform="matrix(1 0 0 1 500 29 )" />
  </g>
</svg>