<?xml version="1.0" encoding="utf-8"?>
<svg version="1.1" xmlns:xlink="http://www.w3.org/1999/xlink" width="21px" height="21px" xmlns="http://www.w3.org/2000/svg">
  <g transform="matrix(1 0 0 1 -704 -29 )">
    <path d="M 7.5 1.75  L 7.5 3.5  L 13.5 3.5  L 13.5 1.75  L 7.5 1.75  Z M 13.125 12.25  L 21 12.25  L 21 18.8125  C 21 19.4140625  20.81640625 19.9290364583333  20.44921875 20.357421875  C 20.08203125 20.7858072916667  19.640625 21  19.125 21  L 1.875 21  C 1.359375 21  0.91796875 20.7858072916667  0.55078125 20.357421875  C 0.18359375 19.9290364583333  0 19.4140625  0 18.8125  L 0 12.25  L 7.875 12.25  L 7.875 14.4375  C 7.875 14.6744791666667  7.94921875 14.8795572916667  8.09765625 15.052734375  C 8.24609375 15.2259114583333  8.421875 15.3125  8.625 15.3125  L 12.375 15.3125  C 12.578125 15.3125  12.75390625 15.2259114583333  12.90234375 15.052734375  C 13.05078125 14.8795572916667  13.125 14.6744791666667  13.125 14.4375  L 13.125 12.25  Z M 9 12.25  L 12 12.25  L 12 14  L 9 14  L 9 12.25  Z M 20.44921875 4.142578125  C 20.81640625 4.57096354166667  21 5.0859375  21 5.6875  L 21 11  L 0 11  L 0 5.6875  C 0 5.0859375  0.18359375 4.57096354166667  0.55078125 4.142578125  C 0.91796875 3.71419270833333  1.359375 3.5  1.875 3.5  L 6 3.5  L 6 1.3125  C 6 0.947916666666657  6.109375 0.638020833333329  6.328125 0.3828125  C 6.546875 0.127604166666671  6.8125 0  7.125 0  L 13.875 0  C 14.1875 0  14.453125 0.127604166666671  14.671875 0.3828125  C 14.890625 0.638020833333329  15 0.947916666666657  15 1.3125  L 15 3.5  L 19.125 3.5  C 19.640625 3.5  20.08203125 3.71419270833333  20.44921875 4.142578125  Z " fill-rule="nonzero" fill="#1695e5" stroke="none" transform="matrix(1 0 0 1 704 29 )" />
  </g>
</svg>