<?xml version="1.0" encoding="utf-8"?>
<svg version="1.1" xmlns:xlink="http://www.w3.org/1999/xlink" width="18px" height="18px" xmlns="http://www.w3.org/2000/svg">
  <g transform="matrix(1 0 0 1 -15 -15 )">
    <path d="M 17.77734375 14.6671875  C 17.92578125 14.8453125  18 15.05625  18 15.3  L 18 17.1  C 18 17.34375  17.92578125 17.5546875  17.77734375 17.7328125  C 17.62890625 17.9109375  17.453125 18  17.25 18  L 0.75 18  C 0.546874999999993 18  0.371093749999993 17.9109375  0.22265625 17.7328125  C 0.0742187500000071 17.5546875  0 17.34375  0 17.1  L 0 15.3  C 0 15.05625  0.0742187500000071 14.8453125  0.22265625 14.6671875  C 0.371093749999993 14.4890625  0.546874999999993 14.4  0.75 14.4  L 17.25 14.4  C 17.453125 14.4  17.62890625 14.4890625  17.77734375 14.6671875  Z M 17.77734375 7.4671875  C 17.92578125 7.64531249999999  18 7.85624999999999  18 8.1  L 18 9.9  C 18 10.14375  17.92578125 10.3546875  17.77734375 10.5328125  C 17.62890625 10.7109375  17.453125 10.8  17.25 10.8  L 0.75 10.8  C 0.546874999999993 10.8  0.371093749999993 10.7109375  0.22265625 10.5328125  C 0.0742187500000071 10.3546875  0 10.14375  0 9.9  L 0 8.1  C 0 7.85624999999999  0.0742187500000071 7.64531249999999  0.22265625 7.4671875  C 0.371093749999993 7.28906250000001  0.546874999999993 7.2  0.75 7.2  L 17.25 7.2  C 17.453125 7.2  17.62890625 7.28906250000001  17.77734375 7.4671875  Z M 17.77734375 0.2671875  C 17.92578125 0.445312499999992  18 0.656249999999991  18 0.9  L 18 2.7  C 18 2.94375000000001  17.92578125 3.15468750000001  17.77734375 3.3328125  C 17.62890625 3.51093749999999  17.453125 3.6  17.25 3.6  L 0.75 3.6  C 0.546874999999993 3.6  0.371093749999993 3.51093749999999  0.22265625 3.3328125  C 0.0742187500000071 3.15468750000001  0 2.94375000000001  0 2.7  L 0 0.9  C 0 0.656249999999991  0.0742187500000071 0.445312499999992  0.22265625 0.2671875  C 0.371093749999993 0.0890625000000085  0.546874999999993 0  0.75 0  L 17.25 0  C 17.453125 0  17.62890625 0.0890625000000085  17.77734375 0.2671875  Z " fill-rule="nonzero" fill="#aaaaaa" stroke="none" transform="matrix(1 0 0 1 15 15 )" />
  </g>
</svg>