<?xml version="1.0" encoding="utf-8"?>
<svg version="1.1" xmlns:xlink="http://www.w3.org/1999/xlink" width="300px" height="47px" xmlns="http://www.w3.org/2000/svg">
  <g transform="matrix(1 0 0 1 0 -2 )">
    <path d="M 1 4  A 1 1 0 0 1 2 3 L 298 3  A 1 1 0 0 1 299 4 L 299 47  A 1 1 0 0 1 298 48 L 2 48  A 1 1 0 0 1 1 47 L 1 4  Z " fill-rule="nonzero" fill="#061650" stroke="none" fill-opacity="0.698039215686274" />
    <path d="M 0.5 4  A 1.5 1.5 0 0 1 2 2.5 L 298 2.5  A 1.5 1.5 0 0 1 299.5 4 L 299.5 47  A 1.5 1.5 0 0 1 298 48.5 L 2 48.5  A 1.5 1.5 0 0 1 0.5 47 L 0.5 4  Z " stroke-width="1" stroke="#333333" fill="none" stroke-opacity="0.341176470588235" />
  </g>
</svg>