<?xml version="1.0" encoding="utf-8"?>
<svg version="1.1" xmlns:xlink="http://www.w3.org/1999/xlink" width="22px" height="18px" xmlns="http://www.w3.org/2000/svg">
  <g transform="matrix(1 0 0 1 -16 -16 )">
    <path d="M 21.7278645833333 14.6671875  C 21.9092881944444 14.8453125  22 15.05625  22 15.3  L 22 17.1  C 22 17.34375  21.9092881944444 17.5546875  21.7278645833333 17.7328125  C 21.5464409722222 17.9109375  21.3315972222222 18  21.0833333333333 18  L 0.916666666666667 18  C 0.668402777777769 18  0.453559027777769 17.9109375  0.272135416666667 17.7328125  C 0.0907118055555642 17.5546875  0 17.34375  0 17.1  L 0 15.3  C 0 15.05625  0.0907118055555642 14.8453125  0.272135416666667 14.6671875  C 0.453559027777769 14.4890625  0.668402777777769 14.4  0.916666666666667 14.4  L 21.0833333333333 14.4  C 21.3315972222222 14.4  21.5464409722222 14.4890625  21.7278645833333 14.6671875  Z M 21.7278645833333 7.4671875  C 21.9092881944444 7.64531249999999  22 7.85624999999999  22 8.1  L 22 9.9  C 22 10.14375  21.9092881944444 10.3546875  21.7278645833333 10.5328125  C 21.5464409722222 10.7109375  21.3315972222222 10.8  21.0833333333333 10.8  L 0.916666666666667 10.8  C 0.668402777777769 10.8  0.453559027777769 10.7109375  0.272135416666667 10.5328125  C 0.0907118055555642 10.3546875  0 10.14375  0 9.9  L 0 8.1  C 0 7.85624999999999  0.0907118055555642 7.64531249999999  0.272135416666667 7.4671875  C 0.453559027777769 7.28906250000001  0.668402777777769 7.2  0.916666666666667 7.2  L 21.0833333333333 7.2  C 21.3315972222222 7.2  21.5464409722222 7.28906250000001  21.7278645833333 7.4671875  Z M 21.7278645833333 0.2671875  C 21.9092881944444 0.445312499999992  22 0.656249999999991  22 0.9  L 22 2.7  C 22 2.94375000000001  21.9092881944444 3.15468750000001  21.7278645833333 3.3328125  C 21.5464409722222 3.51093749999999  21.3315972222222 3.6  21.0833333333333 3.6  L 0.916666666666667 3.6  C 0.668402777777769 3.6  0.453559027777769 3.51093749999999  0.272135416666667 3.3328125  C 0.0907118055555642 3.15468750000001  0 2.94375000000001  0 2.7  L 0 0.9  C 0 0.656249999999991  0.0907118055555642 0.445312499999992  0.272135416666667 0.2671875  C 0.453559027777769 0.0890625000000085  0.668402777777769 0  0.916666666666667 0  L 21.0833333333333 0  C 21.3315972222222 0  21.5464409722222 0.0890625000000085  21.7278645833333 0.2671875  Z " fill-rule="nonzero" fill="#d7d7d7" stroke="none" transform="matrix(1 0 0 1 16 16 )" />
  </g>
</svg>