<?xml version="1.0" encoding="utf-8"?>
<svg version="1.1" xmlns:xlink="http://www.w3.org/1999/xlink" width="300px" height="596px" xmlns="http://www.w3.org/2000/svg">
  <g transform="matrix(1 0 0 1 0 -51 )">
    <path d="M 1 53  A 1 1 0 0 1 2 52 L 298 52  A 1 1 0 0 1 299 53 L 299 645  A 1 1 0 0 1 298 646 L 2 646  A 1 1 0 0 1 1 645 L 1 53  Z " fill-rule="nonzero" fill="#061650" stroke="none" fill-opacity="0.698039215686274" />
    <path d="M 0.5 53  A 1.5 1.5 0 0 1 2 51.5 L 298 51.5  A 1.5 1.5 0 0 1 299.5 53 L 299.5 645  A 1.5 1.5 0 0 1 298 646.5 L 2 646.5  A 1.5 1.5 0 0 1 0.5 645 L 0.5 53  Z " stroke-width="1" stroke="#333333" fill="none" stroke-opacity="0.341176470588235" />
  </g>
</svg>