<?xml version="1.0" encoding="utf-8"?>
<svg version="1.1" xmlns:xlink="http://www.w3.org/1999/xlink" width="18px" height="19px" xmlns="http://www.w3.org/2000/svg">
  <g transform="matrix(1 0 0 1 -257 -16 )">
    <path d="M 10.6583850931677 16.9819639278557  C 10.7826086956522 17.1088844355377  10.8447204968944 17.2548430193721  10.8447204968944 17.4198396793587  C 10.8447204968944 17.5848363393454  10.7826086956522 17.7307949231797  10.6583850931677 17.8577154308617  L 9.72670807453416 18.809619238477  C 9.60248447204969 18.936539746159  9.45962732919255 19  9.29813664596273 19  C 9.13664596273292 19  8.99378881987578 18.936539746159  8.8695652173913 18.809619238477  L 0.186335403726708 9.93787575150301  C 0.0621118012422361 9.81095524382097  0 9.66499665998664  0 9.5  C 0 9.33500334001336  0.0621118012422361 9.18904475617902  0.186335403726708 9.06212424849699  L 8.8695652173913 0.190380761523046  C 8.99378881987578 0.0634602538410147  9.13664596273292 0  9.29813664596273 0  C 9.45962732919255 0  9.60248447204969 0.0634602538410147  9.72670807453416 0.190380761523046  L 10.6583850931677 1.14228456913828  C 10.7826086956522 1.26920507682031  10.8447204968944 1.41516366065464  10.8447204968944 1.58016032064128  C 10.8447204968944 1.74515698062792  10.7826086956522 1.89111556446226  10.6583850931677 2.01803607214429  L 3.33540372670807 9.5  L 10.6583850931677 16.9819639278557  Z M 17.8136645962733 16.9819639278557  C 17.9378881987578 17.1088844355377  18 17.2548430193721  18 17.4198396793587  C 18 17.5848363393454  17.9378881987578 17.7307949231797  17.8136645962733 17.8577154308617  L 16.8819875776398 18.809619238477  C 16.7577639751553 18.936539746159  16.6149068322981 19  16.4534161490683 19  C 16.2919254658385 19  16.1490683229814 18.936539746159  16.0248447204969 18.809619238477  L 7.3416149068323 9.93787575150301  C 7.21739130434783 9.81095524382097  7.15527950310559 9.66499665998664  7.15527950310559 9.5  C 7.15527950310559 9.33500334001336  7.21739130434783 9.18904475617902  7.3416149068323 9.06212424849699  L 16.0248447204969 0.190380761523046  C 16.1490683229814 0.0634602538410147  16.2919254658385 0  16.4534161490683 0  C 16.6149068322981 0  16.7577639751553 0.0634602538410147  16.8819875776398 0.190380761523046  L 17.8136645962733 1.14228456913828  C 17.9378881987578 1.26920507682031  18 1.41516366065464  18 1.58016032064128  C 18 1.74515698062792  17.9378881987578 1.89111556446226  17.8136645962733 2.01803607214429  L 10.4906832298137 9.5  L 17.8136645962733 16.9819639278557  Z " fill-rule="nonzero" fill="#d7d7d7" stroke="none" transform="matrix(1 0 0 1 257 16 )" />
  </g>
</svg>