<?xml version="1.0" encoding="utf-8"?>
<svg version="1.1" xmlns:xlink="http://www.w3.org/1999/xlink" width="261px" height="160px" xmlns="http://www.w3.org/2000/svg">
  <g transform="matrix(1 0 0 1 -930 -570 )">
    <path d="M 2.48387096774195 42.9002932551319  L 7.17595307917884 45.2463343108504  L 12.1612903225806 42.3137829912023  L 15.9736070381231 40.5542521994134  L 16.8533724340176 35.5689149560117  L 17.1466275659824 33.2228739002932  L 19.4926686217009 31.4633431085043  L 18.9061583577712 29.4105571847507  L 19.7859237536657 28.2375366568915  L 20.6656891495601 28.824046920821  L 22.4252199413489 29.1173020527859  L 23.5982404692081 27.3577712609971  L 25.0645161290322 25.891495601173  L 30.049853372434 21.4926686217009  L 30.049853372434 15.9208211143695  L 29.1700879765395 13.8680351906158  L 31.2228739002932 10.348973607038  L 35.0351906158357 9.17595307917884  L 36.2082111436949 10.0557184750733  L 36.2082111436949 8.58944281524919  L 37.0879765395894 6.82991202346034  L 37.9677419354838 5.95014662756591  L 39.1407624633431 5.95014662756591  L 40.9002932551319 5.36363636363637  L 41.7800586510264 3.01759530791787  L 42.6598240469208 3.31085043988264  L 43.5395894428152 3.31085043988264  L 45.0058651026393 2.13782991202345  L 44.7126099706744 0.671554252199371  L 46.1788856304985 1.5513196480938  L 46.7653958944281 2.13782991202345  L 47.3519061583577 3.01759530791787  L 46.7653958944281 3.8973607038123  L 48.2316715542522 5.95014662756591  L 48.2316715542522 8.58944281524919  L 50.5777126099706 12.108504398827  L 53.8035190615835 12.108504398827  L 59.375366568915 11.8152492668621  L 60.8416422287389 13.574780058651  L 64.0674486803518 17.3870967741935  L 65.5337243401759 18.8533724340175  L 68.466275659824 17.6803519061583  L 71.1055718475073 18.5601173020527  L 71.1055718475073 22.6656891495601  L 69.3460410557184 23.2521994134897  L 71.6920821114369 23.5454545454545  L 73.7448680351906 23.5454545454545  L 76.090909090909 33.8093841642228  L 75.7976539589442 35.8621700879766  L 77.5571847507331 37.0351906158357  L 79.9032258064517 38.5014662756598  L 84.5953079178885 38.5014662756598  L 86.9413489736071 36.4486803519061  L 88.9941348973607 35.8621700879766  L 90.7536656891496 35.2756598240469  L 90.7536656891496 37.9149560117302  L 91.6334310850439 40.5542521994134  L 93.9794721407625 41.1407624633431  L 95.1524926686216 43.7800586510264  L 96.6187683284456 46.1260997067449  L 99.5513196480938 45.5395894428152  L 102.483870967742 43.7800586510264  L 105.41642228739 46.4193548387096  L 106.00293255132 48.1788856304985  L 108.055718475073 48.7653958944281  L 109.815249266862 51.9912023460411  L 108.348973607038 53.1642228739003  L 109.228739002932 54.0439882697947  L 111.281524926686 54.9237536656891  L 111.574780058651 56.3900293255132  L 112.74780058651 56.0967741935483  L 116.266862170088 56.683284457478  L 117.439882697947 56.9765395894427  L 118.026392961877 61.0821114369501  L 121.838709677419 67.2404692082112  L 124.771260997067 69.8797653958944  L 124.771260997067 72.8123167155425  L 124.184750733138 75.158357771261  L 125.651026392962 75.7448680351906  L 127.117302052786 77.7976539589442  L 128.876832844575 76.0381231671554  L 129.170087976539 74.2785923753665  L 130.929618768329 70.7595307917888  L 132.395894428153 69.5865102639295  L 131.222873900293 67.8269794721407  L 131.222873900293 65.7741935483871  L 132.395894428153 67.2404692082112  L 132.982404692082 64.6011730205278  L 133.275659824047 60.7888563049853  L 132.982404692082 58.7360703812317  L 134.448680351906 57.5630498533724  L 135.91495601173 57.2697947214076  L 137.381231671554 56.683284457478  L 135.621700879765 55.2170087976539  L 136.50146627566 53.457478005865  L 135.91495601173 51.1114369501466  L 136.794721407625 50.524926686217  L 137.674486803519 49.0586510263929  L 137.674486803519 46.4193548387096  L 135.91495601173 44.0733137829911  L 135.328445747801 43.4868035190616  L 135.328445747801 42.9002932551319  L 135.328445747801 42.6070381231671  L 135.035190615836 41.4340175953079  L 134.448680351906 41.1407624633431  L 133.275659824047 37.9149560117302  L 130.929618768329 39.0879765395894  L 129.463343108504 37.9149560117302  L 130.343108504399 36.741935483871  L 128.876832844575 35.5689149560117  L 128.290322580645 33.8093841642228  L 129.756598240469 31.4633431085043  L 132.689149560117 30.2903225806451  L 135.328445747801 29.7038123167155  L 137.087976539589 27.6510263929619  L 137.674486803519 24.7184750733137  L 138.847507331378 21.4926686217009  L 140.313782991202 21.4926686217009  L 142.073313782991 20.6129032258065  L 143.539589442815 20.9061583577712  L 143.539589442815 23.5454545454545  L 144.41935483871 26.4780058651025  L 145.299120234604 27.9442815249266  L 147.058651026393 29.1173020527859  L 147.645161290322 29.9970674486804  L 149.404692082112 31.4633431085043  L 150.577712609971 31.4633431085043  L 152.337243401759 31.4633431085043  L 154.096774193548 29.7038123167155  L 155.269794721408 27.9442815249266  L 157.029325513196 26.1847507331378  L 157.615835777126 24.4252199413489  L 158.202346041056 23.2521994134897  L 159.66862170088 21.4926686217009  L 162.014662756598 22.9589442815249  L 163.480938416422 24.4252199413489  L 165.533724340176 24.7184750733137  L 167.58651026393 25.0117302052786  L 168.759530791789 24.1319648093842  L 170.225806451613 23.2521994134897  L 172.865102639296 22.9589442815249  L 175.504398826979 22.3724340175953  L 178.436950146628 23.2521994134897  L 178.436950146628 25.5982404692081  L 178.436950146628 28.5307917888563  L 176.970674486804 30.8768328445748  L 175.797653958944 32.9296187683284  L 177.557184750733 33.8093841642228  L 179.609970674487 34.1026392961876  L 179.316715542522 37.3284457478005  L 179.316715542522 39.0879765395894  L 180.196480938416 39.0879765395894  L 181.956011730205 39.0879765395894  L 186.354838709677 39.9677419354838  L 188.407624633431 40.8475073313782  L 190.16715542522 40.5542521994134  L 190.460410557185 37.9149560117302  L 190.460410557185 35.2756598240469  L 190.460410557185 34.3958944281525  L 193.099706744868 33.8093841642228  L 194.859237536657 34.9824046920821  L 196.032258064516 37.0351906158357  L 197.49853372434 37.3284457478005  L 198.671554252199 39.3812316715542  L 199.258064516129 42.6070381231671  L 197.791788856305 44.0733137829911  L 196.325513196481 45.2463343108504  L 196.91202346041 48.4721407624633  L 195.445747800587 51.4046920821114  L 194.859237536657 54.0439882697947  L 194.565982404692 55.5102639296188  L 188.994134897361 55.5102639296188  L 187.527859237537 55.5102639296188  L 184.302052785924 56.0967741935483  L 182.24926686217 56.0967741935483  L 180.489736070381 56.9765395894427  L 178.436950146628 58.7360703812317  L 177.557184750733 61.9618768328445  L 176.970674486804 64.307917888563  L 177.850439882698 65.1876832844574  L 179.609970674487 65.7741935483871  L 181.66275659824 65.7741935483871  L 183.715542521994 65.7741935483871  L 186.648093841642 63.1348973607038  L 192.806451612903 61.375366568915  L 195.152492668622 60.7888563049853  L 197.791788856305 59.6158357771261  L 198.964809384164 60.2023460410556  L 199.258064516129 62.5483870967742  L 201.017595307918 63.4281524926686  L 203.363636363636 66.0674486803518  L 204.243401759531 66.6539589442815  L 204.243401759531 69.5865102639295  L 203.363636363636 71.6392961876833  L 201.017595307918 72.5190615835777  L 200.137829912023 76.0381231671554  L 201.310850439883 77.2111436950146  L 201.897360703812 78.3841642228739  L 206.00293255132 76.624633431085  L 206.882697947214 75.4516129032257  L 210.401759530792 76.0381231671554  L 211.868035190616 76.624633431085  L 214.507331378299 77.7976539589442  L 215.680351906158 76.624633431085  L 219.199413489736 75.7448680351906  L 223.598240469208 77.2111436950146  L 224.184750733138 78.3841642228739  L 227.117302052786 78.9706744868034  L 231.516129032258 78.090909090909  L 241.193548387097 77.5043988269795  L 247.058651026393 77.5043988269795  L 248.524926686217 77.5043988269795  L 252.923753665689 81.3167155425219  L 250.870967741935 88.3548387096773  L 250.870967741935 92.4604105571847  L 248.524926686217 92.4604105571847  L 247.351906158358 96.8592375366568  L 245.005865102639 99.2052785923754  L 242.659824046921 102.724340175953  L 241.780058651026 107.123167155425  L 240.607038123167 109.762463343108  L 237.967741935484 112.108504398827  L 239.727272727273 116.800586510264  L 244.126099706745 119.146627565982  L 252.630498533724 122.372434017595  L 254.976539589443 125.891495601173  L 256.736070381232 129.703812316716  L 259.961876832845 134.102639296188  L 259.961876832845 137.035190615836  L 257.909090909091 141.140762463343  L 257.322580645161 142.900293255132  L 252.043988269795 146.712609970675  L 245.005865102639 146.712609970675  L 243.539589442815 146.41935483871  L 237.674486803519 147.592375366569  L 235.91495601173 148.472140762463  L 236.50146627566 149.351906158358  L 237.674486803519 150.231671554252  L 238.847507331378 152.577712609971  L 233.568914956012 153.457478005865  L 233.275659824047 156.976539589443  L 227.117302052786 156.683284457478  L 226.824046920821 155.510263929619  L 225.944281524927 157.563049853372  L 224.184750733138 158.442815249267  L 220.07917888563 158.442815249267  L 219.492668621701 156.096774193548  L 219.492668621701 154.337243401759  L 213.920821114369 153.1642228739  L 213.33431085044 147.005865102639  L 211 137.91495601173  L 211 122.958944281525  L 213.627565982405 122.958944281525  L 213.041055718475 125.598240469208  L 215.973607038123 127.064516129032  L 215.973607038123 123.545454545455  L 211.281524926686 120.026392961877  L 210.401759530792 120.319648093842  L 207.762463343108 117.680351906158  L 203.070381231671 115.041055718475  L 202.483870967742 114.161290322581  L 198.964809384164 106.243401759531  L 199.844574780059 103.897360703812  L 199.551319648094 102.137829912023  L 196.91202346041 101.258064516129  L 196.618768328446 101.551319648094  L 181.66275659824 100.964809384164  L 179.023460410557 100.964809384164  L 177.557184750733 101.844574780059  L 176.384164222874 103.897360703812  L 174.33137829912 104.190615835777  L 172.865102639296 103.897360703812  L 172.278592375367 102.724340175953  L 169.639296187683 102.137829912023  L 169.052785923754 103.897360703812  L 167.879765395895 104.190615835777  L 167 103.017595307918  L 166.706744868035 102.431085043988  L 165.533724340176 104.190615835777  L 166.120234604105 109.762463343108  L 164.947214076246 110.642228739003  L 163.480938416422 116.214076246334  L 154.390029325513 114.454545454546  L 154.096774193548 113.574780058651  L 152.923753665689 113.574780058651  L 150.284457478006 116.214076246334  L 147.938416422287 118.853372434018  L 147.058651026393 119.733137829912  L 145.005865102639 120.319648093842  L 142.366568914956 122.07917888563  L 141.780058651026 120.612903225806  L 135.621700879765 120.026392961877  L 134.155425219941 117.973607038123  L 129.756598240469 117.973607038123  L 126.824046920821 117.093841642229  L 123.891495601173 115.041055718475  L 120.372434017595 120.612903225806  L 120.07917888563 123.838709677419  L 114.214076246334 122.372434017595  L 110.401759530792 125.011730205279  L 110.108504398827 126.184750733138  L 104.82991202346 126.771260997067  L 99.5513196480938 127.064516129032  L 97.4985337243402 130.58357771261  L 95.7390029325513 132.343108504399  L 93.3929618768329 132.636363636364  L 93.3929618768329 135.568914956012  L 91.0469208211143 137.621700879765  L 87.5278592375366 136.448680351906  L 83.7155425219939 134.689149560117  L 82.5425219941349 133.516129032258  L 81.9560117302053 132.343108504399  L 79.9032258064517 130.58357771261  L 77.8504398826979 129.410557184751  L 76.6774193548385 128.824046920821  L 74.3313782991202 129.703812316716  L 70.2258064516128 131.170087976539  L 61.7214076246333 134.982404692082  L 61.1348973607038 142.020527859238  L 59.375366568915 142.900293255132  L 58.2023460410556 145.24633431085  L 51.7507331378299 144.659824046921  L 49.9912023460411 146.41935483871  L 50.2844574780058 147.885630498534  L 48.524926686217 149.058651026393  L 46.1788856304985 150.231671554252  L 46.1788856304985 152.870967741935  L 45.5923753665688 155.217008797654  L 43.5395894428152 156.683284457478  L 41.7800586510264 157.269794721408  L 41.1935483870967 154.337243401759  L 41.1935483870967 151.991202346041  L 42.0733137829911 149.938416422287  L 39.4340175953079 149.938416422287  L 39.1407624633431 148.178885630499  L 38.5542521994134 146.712609970675  L 37.9677419354838 145.24633431085  L 37.9677419354838 142.020527859238  L 32.3958944281525 141.727272727273  L 32.3958944281525 138.208211143695  L 26.5307917888563 137.91495601173  L 26.824046920821 121.492668621701  L 20.9589442815249 120.906158357771  L 20.9589442815249 114.74780058651  L 27.9970674486804 115.041055718475  L 28.2903225806451 120.026392961877  L 31.5161290322581 125.304985337243  L 32.9824046920821 123.25219941349  L 30.3431085043987 115.33431085044  L 29.7565982404692 112.695014662757  L 29.7565982404692 110.935483870968  L 25.6510263929619 100.964809384164  L 22.1319648093842 94.8064516129032  L 19.4926686217009 91.8739002932551  L 20.0791788856304 88.3548387096773  L 18.0263929618768 86.5953079178885  L 18.6129032258065 83.6627565982404  L 18.0263929618768 81.6099706744868  L 14.8005865102639 79.5571847507331  L 13.041055718475 77.2111436950146  L 11.574780058651 75.7448680351906  L 11.2815249266862 74.5718475073313  L 9.52199413489734 73.9853372434018  L 8.64222873900292 70.1730205278592  L 8.64222873900292 66.6539589442815  L 8.05571847507326 63.1348973607038  L 7.17595307917884 60.7888563049853  L 5.41642228738999 59.9090909090909  L 4.53665689149557 55.8035190615835  L 3.65689149560114 51.9912023460411  L 2.48387096774195 50.2316715542521  L 6.58944281524919 49.9384164222873  L 0.724340175952989 43.2463343108504  L 2.48387096774195 42.9002932551319  Z " fill-rule="nonzero" fill="#1c3371" stroke="none" transform="matrix(1 0 0 1 930 570 )" />
  </g>
</svg>